<svg width="800" height="800" viewBox="0 0 800 800" fill="none" xmlns="http://www.w3.org/2000/svg">
<path d="M564.853 94.9104C611.807 71.6597 635.283 60.0347 651.15 70.5897C667.013 81.145 664.757 106.89 660.247 158.381L659.08 171.702C657.797 186.334 657.157 193.65 659.447 200.282C661.733 206.913 666.693 212.11 676.613 222.502L685.647 231.964C720.553 268.536 738.007 286.823 732.253 305.559C726.5 324.296 701.35 331.074 651.05 344.63L638.037 348.137C623.743 351.99 616.597 353.917 610.897 358.39C605.2 362.863 601.593 369.38 594.38 382.41L587.813 394.27C562.433 440.127 549.747 463.053 530.327 464.077C510.907 465.1 497.617 443.543 471.04 400.433L464.167 389.28C456.613 377.027 452.837 370.903 447.027 367.037C441.217 363.17 434.027 362 419.65 359.66L406.56 357.53C355.97 349.297 330.672 345.18 324.423 327.076C318.175 308.973 335.113 288.872 368.987 248.671L377.75 238.27C387.377 226.846 392.19 221.134 394.297 214.271C396.403 207.407 395.567 200.169 393.893 185.693L392.37 172.514C386.483 121.572 383.54 96.101 399.097 83.888C414.653 71.675 438.41 80.8084 485.92 99.0747L498.213 103.801C511.713 108.991 518.467 111.587 525.58 111.211C532.693 110.836 539.363 107.533 552.707 100.925L564.853 94.9104Z" fill="#59636E"/>
<path d="M301.484 377.343C199.683 442.323 109.037 559.89 69.6933 667.737C56.9283 702.727 86.3563 733.353 123.889 733.353H158.333C158.336 721.66 161.075 707.13 165.124 691.88C169.292 676.183 175.295 658.1 182.778 638.72C197.74 599.973 219.019 555.017 244.54 512.173C269.97 469.483 300.207 427.887 333.373 396.64C334.193 395.867 335.02 395.1 335.847 394.333C335.067 394.097 334.297 393.857 333.54 393.613C324.064 390.563 312.221 385.71 301.484 377.343Z" fill="#59636E"/>
<path d="M400.673 407.243C390.05 413.743 379.017 422.333 367.66 433.033C339.097 459.943 311.603 497.293 287.497 537.763C263.482 578.077 243.418 620.487 229.421 656.73C222.425 674.85 217.045 691.17 213.45 704.71C209.741 718.68 208.336 728.213 208.333 733.353H302.768C302.772 695.887 315.748 626.497 339.23 556.96C356.463 505.937 380.323 451.85 411.073 408.937L400.673 407.243Z" fill="#59636E"/>
<path d="M443.273 450.447C420.75 485.237 401.573 528.623 386.603 572.96C364.007 639.87 352.773 703.473 352.767 733.353H395.727C433.26 733.353 463.477 703.14 465.977 666.013C470.27 602.21 480.12 544.703 491.37 503.807C480.233 497.267 471.627 488.673 465.297 481.24C457.997 472.67 450.653 461.967 443.273 450.447Z" fill="#59636E"/>
</svg>
