<svg width="627" height="450" viewBox="0 0 627 450" fill="none" xmlns="http://www.w3.org/2000/svg">
<path fill-rule="evenodd" clip-rule="evenodd" d="M383.657 7.32225C393.42 -2.44075 409.247 -2.44075 419.01 7.32225L619.01 207.323C628.773 217.087 628.773 232.913 619.01 242.677L419.01 442.677C409.247 452.44 393.42 452.44 383.657 442.677C373.893 432.913 373.893 417.087 383.657 407.323L540.977 250H115C101.193 250 90 238.807 90 225C90 211.193 101.193 200 115 200H540.977L383.657 42.6776C373.893 32.9146 373.893 17.0853 383.657 7.32225Z" fill="red"/>
<rect y="200" width="50" height="50" rx="25" fill="white"/>
</svg>
