<svg width="800" height="800" viewBox="0 0 800 800" fill="none" xmlns="http://www.w3.org/2000/svg">
<path fill-rule="evenodd" clip-rule="evenodd" d="M436.223 712.923L454.293 682.393C468.307 658.713 475.317 646.873 486.573 640.327C497.83 633.78 512 633.537 540.346 633.05C582.193 632.327 608.437 629.763 630.447 620.647C671.287 603.73 703.73 571.287 720.646 530.447C733.333 499.82 733.333 460.99 733.333 383.333V350C733.333 240.886 733.333 186.328 708.773 146.25C695.03 123.824 676.176 104.969 653.75 91.2267C613.67 66.6667 559.113 66.6667 450 66.6667H350C240.885 66.6667 186.328 66.6667 146.25 91.2267C123.824 104.969 104.969 123.824 91.2265 146.25C66.6665 186.328 66.6665 240.886 66.6665 350V383.333C66.6665 460.99 66.6665 499.82 79.3532 530.447C96.2688 571.287 128.714 603.73 169.552 620.647C191.563 629.763 217.807 632.327 259.652 633.05C287.997 633.537 302.169 633.78 313.426 640.327C324.683 646.877 331.691 658.713 345.706 682.393L363.776 712.923C379.883 740.133 420.117 740.133 436.223 712.923ZM250 323.825C250 382.243 322.11 444.347 366.336 476.94C381.473 488.097 389.043 493.677 400 493.677C410.956 493.677 418.526 488.1 433.663 476.94C477.89 444.347 550 382.247 550 323.825C550 234.586 467.496 201.269 400 270.205C332.502 201.269 250 234.586 250 323.825Z" fill="#59636E"/>
</svg>
