<svg width="1952" height="938" viewBox="0 0 1952 938" fill="none" xmlns="http://www.w3.org/2000/svg">
<path d="M7.53301 2.03325C4.86634 3.23325 2.86634 5.36659 1.79967 8.16659C0.733008 11.3666 0.333008 74.8333 0.333008 244.033C0.333008 461.9 0.466341 475.767 2.73301 479.1C4.19967 481.5 128.333 562.033 358.6 710.167L712.333 937.633L1045.27 937.5C1228.47 937.5 1505.53 937.1 1661 936.567L1943.53 935.767L1946.47 932.833C1949.27 930.033 1949.27 928.833 1950.07 876.033C1950.87 830.3 1951.67 686.833 1951.13 681.9C1950.87 679.1 1319.27 4.96659 1314.6 2.56659C1310.6 0.299919 1276.73 0.166585 661 0.166585C117.4 0.299919 10.9997 0.566585 7.53301 2.03325ZM1617 356.3L1929 689.633L1928.6 779.9C1928.47 829.5 1927.93 879.767 1927.4 891.633L1926.6 913.1L1715.13 913.9C1598.87 914.433 1327.27 914.967 1111.67 915.1L719.666 915.5L506.333 778.3C389 702.833 232.2 602.033 158.066 554.3L22.9997 467.5V246.033C22.9997 124.3 23.3997 24.1666 23.933 23.7666C24.333 23.2333 312.866 22.8333 664.866 22.8333L1305 22.9666L1617 356.3Z" fill="black"/>
<path d="M137.666 262.833V437.5H177.666H217.666V370.167V302.833H254.866H292.066L340.599 369.767L389.133 436.833L437.399 437.233C463.933 437.367 485.666 437.233 485.666 436.833C485.666 436.567 464.066 406.3 437.533 369.9L389.399 303.5L438.199 303.1L486.999 302.833V195.5V88.1666H446.333H405.666V155.5V222.833L312.066 222.567L218.333 222.167L217.933 155.1L217.666 88.1666H177.666H137.666V262.833Z" fill="black"/>
<path d="M536.333 262.833V437.5H711.666H887V262.833V88.1666H711.666H536.333V262.833ZM805.4 262.433L805 356.833L711.4 357.233L617.666 357.5V262.833V168.167H711.666H805.666L805.4 262.433Z" fill="black"/>
<path d="M1015.8 142.7L976.333 197.233V276.033V354.833H956.333H936.333V435.5V516.167H977H1017.67V476.833V437.5H1137H1256.33V476.833V516.167H1296.33H1336.33V435.5V354.833H1316.33H1296.33V221.5V88.1667H1175.8H1055.27L1015.8 142.7ZM1215.67 262.833V356.833L1136.73 357.233L1057.67 357.5V293.633V229.9L1079.8 198.967L1101.93 168.167L1158.73 168.433L1215.67 168.833V262.833Z" fill="black"/>
<path d="M712.333 801.5V857.5L768.066 857.233L823.666 856.833V822.833V788.833L780.6 788.433L737.533 788.167L737.933 779.767L738.333 771.5L781.4 771.1L824.333 770.833V758.167V745.5H768.333H712.333V801.5ZM797.666 822.167V830.833H767.666H737.666V823.1C737.666 818.833 738.066 814.833 738.6 814.433C739 813.9 752.6 813.5 768.6 813.5H797.666V822.167Z" fill="black"/>
<path d="M861.666 779.5V813.5L904.066 813.767L946.333 814.167L946.733 822.433L947.133 830.833H904.333H861.666V844.167V857.5H916.999H972.333V801.5V745.5H959.666H946.999V766.833V788.167H916.999H886.999V766.833V745.5H874.333H861.666V779.5Z" fill="black"/>
<path d="M1035.4 762.967L1023 780.167V805.5V830.833H1016.33H1009.67V856.167V881.5H1023H1036.33V869.5V857.5H1074.33H1112.33V869.5V881.5H1125H1137.67V856.167V830.833H1131H1124.33V788.167V745.5L1086.07 745.633H1047.67L1035.4 762.967ZM1099 800.833V830.833H1073.67H1048.33V811.1C1048.33 789.633 1047.67 791.9 1057.93 777.767L1063.13 770.833H1081H1099V800.833Z" fill="black"/>
<path d="M1175 779.5V813.5H1217.67H1260.33V822.167V830.833H1217.67H1175V844.167V857.5L1230.73 857.233L1286.33 856.833L1286.73 801.1L1287 745.5H1273.67H1260.33V766.833V788.167H1230.33H1200.33V766.833V745.5H1187.67H1175V779.5Z" fill="black"/>
<path d="M1324.33 801.5V857.5H1373.67H1423V870.167V882.833H1435.67H1448.33V856.833V830.833H1441.67H1435V788.167V745.5H1422.33H1409.67V788.167V830.833H1401H1392.33V788.167V745.5H1379.67H1367V788.167V830.833H1358.33H1349.67V788.167V745.5H1337H1324.33V801.5Z" fill="black"/>
<path d="M1477.67 801.5V857.5L1533.4 857.233L1589 856.833V844.167V831.5L1545.93 831.1L1502.87 830.833L1503.27 822.433L1503.67 814.167L1546.73 813.767L1589.8 813.5L1589.4 801.1L1589 788.833L1545.93 788.433L1502.87 788.167L1503.27 779.767L1503.67 771.5L1546.73 771.1L1589.67 770.833V758.167V745.5H1533.67H1477.67V801.5Z" fill="black"/>
<path d="M1627 801.5V857.5H1639.67H1652.33V814.167V770.833H1695H1737.67V758.167V745.5H1682.33H1627V801.5Z" fill="black"/>
<path d="M1775.27 801.1L1775.67 856.833L1831.4 857.233L1887 857.5V801.5V745.5H1831H1775L1775.27 801.1ZM1861.4 801.1L1861.67 830.833H1831.67H1801.67V800.833V770.833L1831.4 771.1L1861 771.5L1861.4 801.1Z" fill="black"/>
</svg>
