<svg width="800" height="800" viewBox="0 0 800 800" fill="none" xmlns="http://www.w3.org/2000/svg">
<path fill-rule="evenodd" clip-rule="evenodd" d="M703.364 266.784C701.474 266.665 699.417 266.666 697.287 266.667L696.754 266.667H613.137C544.214 266.667 485.24 320.919 485.24 391.667C485.24 462.413 544.214 516.667 613.137 516.667H696.754H697.287C699.417 516.667 701.474 516.67 703.364 516.55C731.36 514.78 756.117 492.873 758.2 462.273C758.337 460.267 758.334 458.103 758.334 456.1V455.557V327.778V327.234C758.334 325.229 758.337 323.066 758.2 321.06C756.117 290.46 731.36 268.552 703.364 266.784ZM605.724 425C623.467 425 637.85 410.077 637.85 391.667C637.85 373.257 623.467 358.333 605.724 358.333C587.98 358.333 573.594 373.257 573.594 391.667C573.594 410.077 587.98 425 605.724 425Z" fill="#59636E"/>
<path fill-rule="evenodd" clip-rule="evenodd" d="M697.263 566.667C702.233 566.537 705.996 571.14 704.646 575.927C697.956 599.673 687.333 619.917 670.293 636.96C645.347 661.903 613.713 672.973 574.633 678.23C536.66 683.333 488.14 683.333 426.88 683.333H356.453C295.194 683.333 246.673 683.333 208.699 678.23C169.619 672.973 137.987 661.903 113.041 636.96C88.0958 612.013 77.0252 580.38 71.7712 541.3C66.6655 503.327 66.6659 454.807 66.6665 393.547V389.787C66.6659 328.528 66.6655 280.006 71.7712 242.033C77.0252 202.952 88.0958 171.32 113.041 146.375C137.987 121.429 169.619 110.359 208.699 105.105C246.673 99.999 295.194 99.9993 356.453 100H426.88C488.14 99.9993 536.66 99.999 574.633 105.105C613.713 110.359 645.347 121.429 670.293 146.375C687.333 163.417 697.953 183.658 704.646 207.406C705.996 212.192 702.233 216.796 697.263 216.667L613.133 216.667C518.58 216.667 435.236 291.364 435.236 391.667C435.236 491.97 518.58 566.667 613.133 566.667H697.263ZM233.333 516.667C219.526 516.667 208.333 505.473 208.333 491.667V291.667C208.333 277.86 219.526 266.667 233.333 266.667C247.14 266.667 258.333 277.86 258.333 291.667V491.667C258.333 505.473 247.14 516.667 233.333 516.667Z" fill="#59636E"/>
</svg>
