<svg version="1.1" xmlns="http://www.w3.org/2000/svg" xmlns:xlink="http://www.w3.org/1999/xlink" width="1364" height="278" viewBox="0,0,256,52.16667"><g fill="#ffffff" fill-rule="nonzero" stroke="none" stroke-width="1" stroke-linecap="butt" stroke-linejoin="miter" stroke-miterlimit="10" stroke-dasharray="" stroke-dashoffset="0" font-family="none" font-weight="none" font-size="none" text-anchor="none" style="mix-blend-mode: normal"><g transform="translate(0,0.02664) scale(0.18768,0.18768)"><path d="M0,138.833v138.667h139.333h139.334v-138.667v-138.66635h-139.334h-139.333zM238.667,138.833v100h-100h-100.0003v-99.066c0,-54.5337 0.4,-99.6003 0.9333,-100.0003c0.4,-0.5334 45.4667,-0.9334 100,-0.9334h99.067z"></path><path d="M124.933,98.4332l-40.933,41.0668l41.333,41.333l41.334,41.334v-27.334v-27.333l-14,-14l-14,-14l14,-14l14,-14.134l-0.267,-26.9328l-0.4,-26.9334z"></path><path d="M373.067,2.70001c-25.334,8.13329 -39.867,29.46669 -35.867,52.39999c3.333,19.0667 15.467,29.6 44.8,39.0667c23.733,7.6003 29.333,13.0663 24,23.0663c-3.6,6.534 -9.733,9.867 -18.133,9.867c-9.467,-0.133 -18.134,-3.333 -25.734,-9.6c-3.466,-2.933 -6.8,-5.333 -7.333,-5.333c-0.4,0 -6,5.066 -12.133,11.333c-12.8,12.933 -12.8,12.667 -2,20.933c15.6,11.734 31.6,17.067 51.866,17.067c26.267,0 45.6,-9.867 55.6,-28.267c4.267,-8 4.534,-9.066 4.534,-21.733c0,-12.2667 -0.267,-13.8667 -4,-20.4c-6.667,-12.1333 -15.334,-17.8667 -40.267,-26.5333c-19.733,-6.8 -23.867,-9.0667 -25.6,-13.7334c-2.8,-8.4 5.067,-16 16.667,-16c6.133,0 17.2,4.5334 22.4,9.0667c2.266,2.1333 2.933,1.6 14.533,-10.2667l12,-12.6666l-4.933,-4.2667c-7.067,-6.1333 -19.2,-12.13332 -28.934,-14.53332c-11.866,-2.8 -31.866,-2.53334 -41.466,0.53333z"></path><path d="M1124,2.16664c-4.8,1.06667 -14.27,4.66667 -20.93,8.13336c-21.34,10.6666 -36,28.1333 -42.4,50.2666c-2.67,9.2 -2.94,28.4 -0.67,38.5334c6.4,27.867 31.07,52.133 60.8,59.733c28,7.2 60.4,-0.533 81.6,-19.466l8.27,-7.467v-29.867v-29.8664h-32.67h-32.67v12.6667v12.6667h12h12.14l-0.4,9.6l-0.4,9.6l-7.87,4.133c-6.93,3.467 -9.2,4 -18.67,3.867c-8.8,0 -12.13,-0.667 -18.26,-3.6c-8.8,-4.267 -17.6,-13.2 -21.6,-22c-4.14,-8.9334 -4.14,-27.6 0,-36.5334c8.66,-18.8 29.06,-29.2 49.33,-25.0666c9.87,2.1333 16.67,5.4666 25.07,12.6666l6.8,5.7334l12.26,-13.0667l12.27,-13.0666l-8.93,-8.1334c-19.6,-18.13332 -47.6,-25.19999 -75.07,-19.46666z"></path><path d="M449.466,7.09999c0.934,1.73334 13.2,24.00001 27.467,49.46671l25.733,46.4003v27.2v27.333h20.667h20.667v-27.867v-27.733l26,-46.8c14.4,-25.8667 26.4,-47.73334 26.8,-48.93334c0.666,-1.73333 -2,-2 -20.934,-2h-21.866l-15.2,29.33334c-8.4,16.1333 -15.734,28.9333 -16.267,28.4c-0.667,-0.6667 -7.6,-13.7333 -15.6,-29.0667l-14.667,-27.99997l-22.133,-0.4l-22.267,-0.26667z"></path><path d="M608,80.8333v76.6667h20.667h20.666l0.267,-42.533l0.4,-42.5337l32.667,42.5337l32.666,42.4l17.734,0.133h17.6v-76.6667v-76.66664h-20h-20l-0.267,42.93334l-0.4,42.8l-32.667,-42.8l-32.666,-42.80001h-18.267l-18.4,-0.13333z"></path><path d="M778.667,80.8333v76.6667h60h60v-17.333v-17.334h-39.333h-39.334v-13.333v-13.3333h29.334h29.333v-16v-16h-29.333h-29.334v-12.6667v-12.6667h38h38v-17.3333v-17.33334h-58.666h-58.667z"></path><path d="M917.333,80.7v76.8h20h20v-24v-24h11.733h11.734l13.066,24l13.064,24h21.2c11.6,0 21.2,-0.267 21.2,-0.667c0,-0.266 -6.93,-12.8 -15.33,-27.6l-15.33,-27.066l3.6,-2.5337c16.4,-11.6 24.66,-30.9333 21.73,-51.2c-2.4,-17.3333 -13.2,-31.2 -30.4,-39.33331l-8.93,-4.26666l-43.604,-0.4l-43.733,-0.4zM999.466,46.0333c5.204,5.2 6.004,11.4667 2.534,18.1334c-3.467,6.6666 -7.867,8 -26.667,8h-16.667v-15.3334v-15.3333h18.134h18.133z"></path><path d="M1214.67,4.83333c0,0.26666 12.26,22.66667 27.33,49.59997l27.33,49.0667v26.933v27.067h20h20v-26.933v-26.8l27.34,-49.2003c15.06,-27.0667 27.33,-49.46671 27.33,-49.73337c0,-0.4 -9.87,-0.66667 -21.87,-0.66667h-21.86l-15.2,29.33334c-8.27,16.1333 -15.34,29.3333 -15.74,29.3333c-0.4,0 -7.46,-13.2 -15.73,-29.3333l-15.07,-29.33334h-22c-12,0 -21.86,0.26667 -21.86,0.66667z"></path><path d="M857.733,194.567c-18.267,6.533 -28.267,20 -28.4,38.4c0,11.2 3.067,19.333 10.8,27.733c9.2,10 17.2,13.467 31.867,13.333c12.666,0 20,-2.533 29.466,-10l5.2,-4.133v-14.533v-14.534h-15.333h-15.333v5.2v5.334l7.066,0.4l6.934,0.4v6c0,5.733 -0.267,6.133 -6,9.066c-11.6,6 -27.6,1.6 -34.534,-9.466c-5.6,-9.067 -4.933,-21.734 1.734,-30.667c3.333,-4.533 14.533,-10.267 20.133,-10.267c6.133,0 12.667,2.4 18.4,6.934l5.2,4l4.533,-4.4c2.534,-2.4 4.534,-5.067 4.534,-6c0,-1.867 -10.667,-9.867 -16.667,-12.4c-6.933,-3.067 -21.733,-3.2 -29.6,-0.4z"></path><path d="M949.334,195.767c-9.334,4.8 -13.334,10.533 -13.334,19.333c0,12.4 4.8,17.2 22.4,23.2c12.667,4.267 16.267,7.067 16.267,12.533c0,10.667 -18.533,12.667 -29.467,3.2c-1.733,-1.6 -2.666,-1.2 -7.066,3.334l-4.934,5.066l4.8,4c10.4,8.667 28,10.934 40.134,5.2c9.466,-4.4 13.066,-9.866 13.6,-20.933c0.533,-8.667 0.4,-9.067 -4.4,-14.267c-4,-4.533 -6.934,-6.133 -17.2,-9.6c-13.067,-4.266 -16.8,-6.933 -16.8,-11.733c0,-8.267 12.8,-11.2 21.733,-5.067l4.8,3.334l4.8,-5.6c4.533,-5.2 4.667,-5.6 2.4,-7.334c-5.067,-4 -14.533,-7.333 -22.267,-7.866c-7.066,-0.534 -9.2,-0.134 -15.466,3.2z"></path><path d="M1083.2,195.233c-3.73,1.867 -8.13,5.2 -9.87,7.6c-4,5.6 -4.93,15.2 -2.26,21.734c2.53,5.866 7.46,9.066 21.46,13.733c10.67,3.6 16.8,7.867 16.8,11.867c0,1.2 -1.73,4 -3.86,6.133c-3.2,3.2 -5.07,3.867 -10.14,3.867c-6,0 -15.46,-3.734 -17.33,-6.8c-0.67,-0.934 -2.93,0.4 -6.13,3.6c-4.94,4.8 -5.07,5.2 -2.8,7.6c4.8,5.333 15.2,9.333 25.6,9.866c8.93,0.534 10.8,0.267 17.33,-3.2c10.67,-5.466 13.73,-10.666 13.07,-22c-0.4,-7.2 -1.07,-9.6 -3.74,-12.4c-4.13,-4.4 -10.4,-7.733 -20.13,-10.533c-13.6,-3.867 -18,-10.4 -11.47,-16.533c4.27,-4 12.4,-3.867 18.67,0.266l4.67,3.2l4.93,-5.066c2.8,-2.8 4.53,-5.734 4,-6.534c-2.13,-3.6 -14.93,-8.533 -23.33,-9.066c-7.2,-0.4 -9.87,0 -15.47,2.666z"></path><path d="M336,233.5v40h26.667h26.666v-7.333v-7.334h-18h-18v-32.666v-32.667h-8.666h-8.667z"></path><path d="M398.667,233.5v40h30h30v-7.333v-7.334h-21.333h-21.334v-9.333v-9.333h16h16v-7.334v-7.333h-16h-16v-8.667v-8.666h20.667h20.667v-7.334v-7.333h-29.334h-29.333z"></path><path d="M479.333,227.1c-7.2,18.533 -14.267,36.667 -15.6,40.133l-2.4,6.4l8.8,-0.4l8.933,-0.4l3.467,-9.333l3.6,-9.333l15.467,-0.4l15.466,-0.4l3.2,9.733l3.334,9.733l8.933,0.4l8.933,0.4l-1.866,-4.4c-0.934,-2.4 -8,-20.4 -15.6,-40.133l-13.867,-35.6h-8.8h-8.933zM510.666,238.433c0,1.2 -2.8,1.734 -9.333,1.734c-5.067,0 -9.333,-0.534 -9.333,-1.2c0,-1.067 3.066,-9.467 8,-22.134c1.6,-4 1.6,-3.866 6.133,8c2.533,6.534 4.533,12.8 4.533,13.6z"></path><path d="M549.333,233.367v40.133h8h8v-14v-14h7.867h7.866l7.867,14l7.733,14h8.267c4.667,0 8.4,-0.4 8.4,-1.067c-0.133,-0.533 -3.6,-7.2 -7.867,-14.666l-7.866,-13.867l5.733,-5.733c12.267,-12.134 9.867,-32.267 -4.933,-40.667c-5.334,-3.067 -7.2,-3.333 -27.334,-3.733l-21.733,-0.534zM588.4,209.767c4.266,2.266 6.133,5.2 6.266,9.866c0,8.134 -6.933,11.734 -21.333,10.934l-7.333,-0.4l-0.4,-11.067l-0.4,-10.933h10.133c5.6,0 11.467,0.666 13.067,1.6z"></path><path d="M625.333,233.5v40h8.667h8.666l0.267,-25.2l0.4,-25.2l19.333,24.8l19.334,24.933l7.066,0.4l6.934,0.4v-40v-40.133h-8h-8l-0.267,25.6l-0.4,25.467l-19.733,-25.467l-19.734,-25.6h-7.333h-7.2z"></path><path d="M713.333,233.5v40h8h8v-40v-40h-8h-8z"></path><path d="M746.667,233.5v40h8h8l0.267,-25.333l0.4,-25.467l19.333,25.067l19.467,25.066l6.933,0.4l6.933,0.4v-40v-40.133h-8h-8l-0.266,25.333l-0.4,25.2l-19.334,-25.2l-19.333,-25.2l-6.933,-0.133h-7.067z"></path><path d="M995.467,197.767c1.2,2.4 7.603,13.866 14.133,25.6l11.73,21.066v14.534v14.533h8h8v-13.733v-13.734l14.54,-26.266l14.53,-26.267h-8.93h-8.94l-9.06,16.667c-5.07,9.2 -9.47,16.666 -10,16.666c-0.54,0 -5.07,-7.466 -10,-16.666l-9.07,-16.667h-8.53h-8.67z"></path><path d="M1128,200.833v7.334h11.33h11.34v32.666v32.667h8h8v-32.667v-32.666h11.33h11.33v-7.334v-7.333h-30.66h-30.67z"></path><path d="M1198.67,233.5v40h29.33h29.33v-7.333v-7.334h-21.33h-21.33v-9.333v-9.333h16h16v-7.334v-7.333h-16h-16v-8.667v-8.666h20.66h20.67v-7.334v-7.333h-28.67h-28.66z"></path><path d="M1269.33,233.5v40h8h8v-26c0,-14.267 0.54,-26 1.07,-26c0.67,0 6.67,6.933 13.2,15.467l12.13,15.333l12.8,-16.267l12.8,-16.266v26.933v26.8h8.67h8.67v-40v-40h-7.34h-7.33l-13.47,16.933c-7.33,9.467 -13.86,17.2 -14.26,17.467c-0.54,0.133 -6.94,-7.467 -14.27,-17.067l-13.33,-17.2l-7.6,-0.133h-7.74z"></path></g></g></svg>