<svg width="1364" height="278" viewBox="0 0 1364 278" fill="none" xmlns="http://www.w3.org/2000/svg">
<path d="M0 138.833V277.5H139.333H278.667V138.833V0.166652H139.333H0V138.833ZM238.667 138.833V238.833H138.667H38.6667V139.767C38.6667 85.2333 39.0667 40.1667 39.6 39.7667C40 39.2333 85.0667 38.8333 139.6 38.8333H238.667V138.833Z" fill="black"/>
<path d="M124.933 98.4332L84 139.5L125.333 180.833L166.667 222.167V194.833V167.5L152.667 153.5L138.667 139.5L152.667 125.5L166.667 111.366L166.4 84.4332L166 57.4998L124.933 98.4332Z" fill="black"/>
<path d="M373.067 2.70001C347.733 10.8333 333.2 32.1667 337.2 55.1C340.533 74.1667 352.667 84.7 382 94.1667C405.733 101.767 411.333 107.233 406 117.233C402.4 123.767 396.267 127.1 387.867 127.1C378.4 126.967 369.733 123.767 362.133 117.5C358.667 114.567 355.333 112.167 354.8 112.167C354.4 112.167 348.8 117.233 342.667 123.5C329.867 136.433 329.867 136.167 340.667 144.433C356.267 156.167 372.267 161.5 392.533 161.5C418.8 161.5 438.133 151.633 448.133 133.233C452.4 125.233 452.667 124.167 452.667 111.5C452.667 99.2333 452.4 97.6333 448.667 91.1C442 78.9667 433.333 73.2333 408.4 64.5667C388.667 57.7667 384.533 55.5 382.8 50.8333C380 42.4333 387.867 34.8333 399.467 34.8333C405.6 34.8333 416.667 39.3667 421.867 43.9C424.133 46.0333 424.8 45.5 436.4 33.6333L448.4 20.9667L443.467 16.7C436.4 10.5667 424.267 4.56668 414.533 2.16668C402.667 -0.633324 382.667 -0.366657 373.067 2.70001Z" fill="black"/>
<path d="M1124 2.16664C1119.2 3.23331 1109.73 6.83331 1103.07 10.3C1081.73 20.9666 1067.07 38.4333 1060.67 60.5666C1058 69.7666 1057.73 88.9666 1060 99.1C1066.4 126.967 1091.07 151.233 1120.8 158.833C1148.8 166.033 1181.2 158.3 1202.4 139.367L1210.67 131.9V102.033V72.1666H1178H1145.33V84.8333V97.5H1157.33H1169.47L1169.07 107.1L1168.67 116.7L1160.8 120.833C1153.87 124.3 1151.6 124.833 1142.13 124.7C1133.33 124.7 1130 124.033 1123.87 121.1C1115.07 116.833 1106.27 107.9 1102.27 99.1C1098.13 90.1666 1098.13 71.5 1102.27 62.5666C1110.93 43.7666 1131.33 33.3666 1151.6 37.5C1161.47 39.6333 1168.27 42.9666 1176.67 50.1666L1183.47 55.9L1195.73 42.8333L1208 29.7667L1199.07 21.6333C1179.47 3.49998 1151.47 -3.56669 1124 2.16664Z" fill="black"/>
<path d="M449.466 7.09999C450.4 8.83333 462.666 31.1 476.933 56.5667L502.666 102.967V130.167V157.5H523.333H544V129.633V101.9L570 55.1C584.4 29.2333 596.4 7.36666 596.8 6.16666C597.466 4.43333 594.8 4.16666 575.866 4.16666H554L538.8 33.5C530.4 49.6333 523.066 62.4333 522.533 61.9C521.866 61.2333 514.933 48.1667 506.933 32.8333L492.266 4.83333L470.133 4.43333L447.866 4.16666L449.466 7.09999Z" fill="black"/>
<path d="M608 80.8333V157.5H628.667H649.333L649.6 114.967L650 72.4333L682.667 114.967L715.333 157.367L733.067 157.5H750.667V80.8333V4.16666H730.667H710.667L710.4 47.1L710 89.9L677.333 47.1L644.667 4.29999H626.4L608 4.16666V80.8333Z" fill="black"/>
<path d="M778.667 80.8333V157.5H838.667H898.667V140.167V122.833H859.334H820V109.5V96.1667H849.334H878.667V80.1667V64.1667H849.334H820V51.5V38.8333H858H896V21.5V4.16666H837.334H778.667V80.8333Z" fill="black"/>
<path d="M917.333 80.7V157.5H937.333H957.333V133.5V109.5H969.066H980.8L993.866 133.5L1006.93 157.5H1028.13C1039.73 157.5 1049.33 157.233 1049.33 156.833C1049.33 156.567 1042.4 144.033 1034 129.233L1018.67 102.167L1022.27 99.6333C1038.67 88.0333 1046.93 68.7 1044 48.4333C1041.6 31.1 1030.8 17.2333 1013.6 9.09999L1004.67 4.83333L961.066 4.43333L917.333 4.03333V80.7ZM999.466 46.0333C1004.67 51.2333 1005.47 57.5 1002 64.1667C998.533 70.8333 994.133 72.1667 975.333 72.1667H958.666V56.8333V41.5H976.8H994.933L999.466 46.0333Z" fill="black"/>
<path d="M1214.67 4.83333C1214.67 5.09999 1226.93 27.5 1242 54.4333L1269.33 103.5V130.433V157.5H1289.33H1309.33V130.567V103.767L1336.67 54.5667C1351.73 27.5 1364 5.09999 1364 4.83333C1364 4.43333 1354.13 4.16666 1342.13 4.16666H1320.27L1305.07 33.5C1296.8 49.6333 1289.73 62.8333 1289.33 62.8333C1288.93 62.8333 1281.87 49.6333 1273.6 33.5L1258.53 4.16666H1236.53C1224.53 4.16666 1214.67 4.43333 1214.67 4.83333Z" fill="black"/>
<path d="M857.733 194.567C839.466 201.1 829.466 214.567 829.333 232.967C829.333 244.167 832.4 252.3 840.133 260.7C849.333 270.7 857.333 274.167 872 274.033C884.666 274.033 892 271.5 901.466 264.033L906.666 259.9V245.367V230.833H891.333H876V236.033V241.367L883.066 241.767L890 242.167V248.167C890 253.9 889.733 254.3 884 257.233C872.4 263.233 856.4 258.833 849.466 247.767C843.866 238.7 844.533 226.033 851.2 217.1C854.533 212.567 865.733 206.833 871.333 206.833C877.466 206.833 884 209.233 889.733 213.767L894.933 217.767L899.466 213.367C902 210.967 904 208.3 904 207.367C904 205.5 893.333 197.5 887.333 194.967C880.4 191.9 865.6 191.767 857.733 194.567Z" fill="black"/>
<path d="M949.334 195.767C940 200.567 936 206.3 936 215.1C936 227.5 940.8 232.3 958.4 238.3C971.067 242.567 974.667 245.367 974.667 250.833C974.667 261.5 956.134 263.5 945.2 254.033C943.467 252.433 942.534 252.833 938.134 257.367L933.2 262.433L938 266.433C948.4 275.1 966 277.367 978.134 271.633C987.6 267.233 991.2 261.767 991.734 250.7C992.267 242.033 992.134 241.633 987.334 236.433C983.334 231.9 980.4 230.3 970.134 226.833C957.067 222.567 953.334 219.9 953.334 215.1C953.334 206.833 966.134 203.9 975.067 210.033L979.867 213.367L984.667 207.767C989.2 202.567 989.334 202.167 987.067 200.433C982 196.433 972.534 193.1 964.8 192.567C957.734 192.033 955.6 192.433 949.334 195.767Z" fill="black"/>
<path d="M1083.2 195.233C1079.47 197.1 1075.07 200.433 1073.33 202.833C1069.33 208.433 1068.4 218.033 1071.07 224.567C1073.6 230.433 1078.53 233.633 1092.53 238.3C1103.2 241.9 1109.33 246.167 1109.33 250.167C1109.33 251.367 1107.6 254.167 1105.47 256.3C1102.27 259.5 1100.4 260.167 1095.33 260.167C1089.33 260.167 1079.87 256.433 1078 253.367C1077.33 252.433 1075.07 253.767 1071.87 256.967C1066.93 261.767 1066.8 262.167 1069.07 264.567C1073.87 269.9 1084.27 273.9 1094.67 274.433C1103.6 274.967 1105.47 274.7 1112 271.233C1122.67 265.767 1125.73 260.567 1125.07 249.233C1124.67 242.033 1124 239.633 1121.33 236.833C1117.2 232.433 1110.93 229.1 1101.2 226.3C1087.6 222.433 1083.2 215.9 1089.73 209.767C1094 205.767 1102.13 205.9 1108.4 210.033L1113.07 213.233L1118 208.167C1120.8 205.367 1122.53 202.433 1122 201.633C1119.87 198.033 1107.07 193.1 1098.67 192.567C1091.47 192.167 1088.8 192.567 1083.2 195.233Z" fill="black"/>
<path d="M336 233.5V273.5H362.667H389.333V266.167V258.833H371.333H353.333V226.167V193.5H344.667H336V233.5Z" fill="black"/>
<path d="M398.667 233.5V273.5H428.667H458.667V266.167V258.833H437.334H416V249.5V240.167H432H448V232.833V225.5H432H416V216.833V208.167H436.667H457.334V200.833V193.5H428H398.667V233.5Z" fill="black"/>
<path d="M479.333 227.1C472.133 245.633 465.066 263.767 463.733 267.233L461.333 273.633L470.133 273.233L479.066 272.833L482.533 263.5L486.133 254.167L501.6 253.767L517.066 253.367L520.266 263.1L523.6 272.833L532.533 273.233L541.466 273.633L539.6 269.233C538.666 266.833 531.6 248.833 524 229.1L510.133 193.5H501.333H492.4L479.333 227.1ZM510.666 238.433C510.666 239.633 507.866 240.167 501.333 240.167C496.266 240.167 492 239.633 492 238.967C492 237.9 495.066 229.5 500 216.833C501.6 212.833 501.6 212.967 506.133 224.833C508.666 231.367 510.666 237.633 510.666 238.433Z" fill="black"/>
<path d="M549.333 233.367V273.5H557.333H565.333V259.5V245.5H573.2H581.066L588.933 259.5L596.666 273.5H604.933C609.6 273.5 613.333 273.1 613.333 272.433C613.2 271.9 609.733 265.233 605.466 257.767L597.6 243.9L603.333 238.167C615.6 226.033 613.2 205.9 598.4 197.5C593.066 194.433 591.2 194.167 571.066 193.767L549.333 193.233V233.367ZM588.4 209.767C592.666 212.033 594.533 214.967 594.666 219.633C594.666 227.767 587.733 231.367 573.333 230.567L566 230.167L565.6 219.1L565.2 208.167H575.333C580.933 208.167 586.8 208.833 588.4 209.767Z" fill="black"/>
<path d="M625.333 233.5V273.5H634H642.666L642.933 248.3L643.333 223.1L662.666 247.9L682 272.833L689.066 273.233L696 273.633V233.633V193.5H688H680L679.733 219.1L679.333 244.567L659.6 219.1L639.866 193.5H632.533H625.333V233.5Z" fill="black"/>
<path d="M713.333 233.5V273.5H721.333H729.333V233.5V193.5H721.333H713.333V233.5Z" fill="black"/>
<path d="M746.667 233.5V273.5H754.667H762.667L762.934 248.167L763.334 222.7L782.667 247.767L802.134 272.833L809.067 273.233L816 273.633V233.633V193.5H808H800L799.734 218.833L799.334 244.033L780 218.833L760.667 193.633L753.734 193.5H746.667V233.5Z" fill="black"/>
<path d="M995.467 197.767C996.667 200.167 1003.07 211.633 1009.6 223.367L1021.33 244.433V258.967V273.5H1029.33H1037.33V259.767V246.033L1051.87 219.767L1066.4 193.5H1057.47H1048.53L1039.47 210.167C1034.4 219.367 1030 226.833 1029.47 226.833C1028.93 226.833 1024.4 219.367 1019.47 210.167L1010.4 193.5H1001.87H993.2L995.467 197.767Z" fill="black"/>
<path d="M1128 200.833V208.167H1139.33H1150.67V240.833V273.5H1158.67H1166.67V240.833V208.167H1178H1189.33V200.833V193.5H1158.67H1128V200.833Z" fill="black"/>
<path d="M1198.67 233.5V273.5H1228H1257.33V266.167V258.833H1236H1214.67V249.5V240.167H1230.67H1246.67V232.833V225.5H1230.67H1214.67V216.833V208.167H1235.33H1256V200.833V193.5H1227.33H1198.67V233.5Z" fill="black"/>
<path d="M1269.33 233.5V273.5H1277.33H1285.33V247.5C1285.33 233.233 1285.87 221.5 1286.4 221.5C1287.07 221.5 1293.07 228.433 1299.6 236.967L1311.73 252.3L1324.53 236.033L1337.33 219.767V246.7V273.5H1346H1354.67V233.5V193.5H1347.33H1340L1326.53 210.433C1319.2 219.9 1312.67 227.633 1312.27 227.9C1311.73 228.033 1305.33 220.433 1298 210.833L1284.67 193.633L1277.07 193.5H1269.33V233.5Z" fill="black"/>
</svg>
