<svg width="1280" height="1096" viewBox="0 0 1280 1096" fill="none" xmlns="http://www.w3.org/2000/svg">
<path d="M635.982 3C616 5 612.5 5.5 608 6C608 7 599.649 81.9667 597.249 103.033C596.315 111.167 596.049 111.7 592.315 112.633C590.182 113.167 581.249 115.167 572.715 117.167C564.049 119.033 549.649 123.033 540.715 125.967L524.315 131.3L520.315 126.9C518.182 124.367 508.582 113.167 498.982 101.967C474.982 73.5666 465.249 62.1 458.982 54.7667L453.649 48.6333L438.849 55.7C416.182 66.6333 398.449 76.7667 373.649 93.3C345.649 111.967 345.782 111.833 346.715 114.767C347.115 116.1 351.782 128.5 357.115 142.5C362.315 156.367 368.982 173.833 371.649 181.167C374.449 188.5 378.315 198.767 380.315 204.1L384.049 213.7L366.049 231.433C356.182 241.167 344.182 253.567 339.515 259.033L330.849 268.9L314.315 261.833C305.115 258.1 292.315 252.633 285.649 249.833C248.315 234.1 234.449 228.5 233.382 228.5C231.915 228.5 210.182 261.3 200.449 278.367C191.649 293.433 178.315 320.367 178.315 322.767C178.315 323.567 185.115 331.7 193.382 340.767C201.515 349.967 218.715 368.9 231.515 382.9L254.582 408.5H312.449H370.182L373.915 400.767C420.582 305.967 509.249 238.367 612.315 218.633C635.649 214.233 647.782 213.167 675.649 213.167C734.049 213.167 782.315 225.033 832.982 251.567C892.182 282.633 943.915 334.767 974.315 394.1L981.649 408.5H1036.32H1090.85L1095.25 403.7C1097.65 401.033 1104.58 393.3 1110.72 386.633C1116.85 379.967 1124.72 371.167 1128.32 367.167C1135.38 359.033 1153.78 339.033 1164.58 327.3C1168.45 323.167 1171.65 319.167 1171.65 318.5C1171.65 311.7 1122.98 229.7 1117.65 227.7C1115.65 226.9 1108.18 229.833 1041.78 257.833L1019.12 267.3L1011.92 258.9C1001.92 247.433 969.515 215.567 961.915 209.833C958.582 207.3 955.649 204.5 955.649 203.567C955.649 202.633 960.849 188.233 967.115 171.567C973.382 154.9 981.782 132.767 985.649 122.5C989.515 112.233 992.449 103.433 992.049 102.9C990.982 101.033 961.782 82.3667 945.649 73.1667C936.849 68.1 921.249 59.9667 910.982 54.9L892.315 45.8333L882.582 56.2333C877.115 61.8333 859.649 80.1 843.515 96.7667L814.182 127.033L807.915 125.033C794.982 120.9 766.449 113.967 753.249 111.567C741.649 109.567 739.515 108.767 738.982 106.5C738.715 105.033 734.567 85 729.5 58.5C722.585 29 717.5 5 717.5 5C717.5 5 704.849 3.8 694.982 3C675.516 1.53333 655.049 1.53333 635.982 3Z" fill="black"/>
<path d="M647.466 256.767C594.133 261.433 536 284.767 492.8 318.9C446.133 355.7 408.133 412.633 392.533 468.767L390.533 476.5H332.533H274.533L257.2 462.5L240 448.5H216.666H193.333V434.5V420.5H152.666H112V461.167V501.833H152.666H193.333V487.833V473.833H212H230.8L248.133 487.833L265.6 501.833H325.6H385.6L384.8 505.433C384.133 508.767 381.333 537.3 381.333 541.433C381.333 542.767 351.2 543.167 235.333 543.167H89.333V525.833V508.5H45.333H1.33301V553.167V597.833H45.333H89.333V583.167V568.5H235.733H382.133L383.866 582.767C384.8 590.767 385.866 599.433 386.266 602.1L386.933 607.167H326.266H265.466L248.133 621.167L230.8 635.167H212H193.333V620.5V605.833H152.666H112V647.167V688.5H152.666H193.333V674.5V660.5H216.4H239.333L256.666 646.5L274 632.633L334.4 632.5C387.733 632.5 394.666 632.767 394.666 634.5C394.666 638.633 407.066 669.433 414.266 683.167C460.4 771.567 547.466 830.5 646.533 840.5C732.666 849.033 819.466 818.1 881.333 756.5C904.666 733.3 921.2 710.5 936.8 679.833L946.266 661.167L978.533 660.5C1010.53 659.833 1104.5 660.5 1138.5 660.5C1138.5 645.5 1138.5 636.333 1138.5 623.5C1138.5 623.5 970.533 623.167 964.666 623.167C959.466 623.167 958.533 622.767 959.2 620.767C961.333 613.567 965.466 590.1 966.133 580.1L967.066 568.5H1012.8H1058.53H1204.67C1204.67 550 1205 531.867 1205 530C1200 530 1056.8 529.833 1016.93 529.833H967.2L966.8 522.767C966.533 516.233 963.333 493.967 961.733 487.433L961.066 484.5H1018.93C1067.73 484.5 1076.53 484.5 1079.5 484.5C1081.03 484.5 1083.97 484.5 1086.5 484.5C1089.03 484.5 1090.13 484.5 1094 484.5C1096.63 484.5 1105.07 484.5 1150.53 484.5H1204.67H1278.5C1278.5 479.433 1278.5 484.5 1278.5 479.433V470.233V465.967V459.7V453.433V445.833H1077.87H949.866L943.6 431.433C933.733 408.633 916.933 381.167 901.6 362.633C884.4 341.833 857.066 317.433 834.4 302.633C780.133 267.3 713.333 250.9 647.466 256.767ZM698 281.833C732.133 285.033 763.066 293.833 792.666 308.367C847.733 335.7 888.666 376.767 915.466 431.433C948.666 499.567 951.466 577.833 923.333 648.5C892 727.167 823.333 787.167 740.533 808.367C717.6 814.233 704.533 815.7 674.666 815.7C650.533 815.7 643.466 815.3 630.133 812.767C599.6 807.033 578.933 800.1 553.2 787.033C484.133 751.967 434.666 690.1 415.333 614.5C409.2 590.367 407.466 575.567 407.466 547.833C407.466 474.5 435.333 408.633 487.6 357.7C504.266 341.567 517.2 331.3 534.266 320.633C582.666 290.633 641.866 276.633 698 281.833ZM168 461.167V476.5H152.666H137.333V461.167V445.833H152.666H168V461.167ZM63.9997 553.167V572.5H45.333H26.6663V553.167V533.833H45.333H63.9997V553.167ZM168 647.167V663.167H152.666H137.333V647.167V631.167H152.666H168V647.167Z" fill="black"/>
<path d="M493.333 395.167V408.5H522.666H552V419.167V719H567.5H583L582.666 419.167V408.5H714H845.333V395.167V381.833H669.333H493.333V395.167Z" fill="black"/>
<path d="M710.667 461.167V492.5L713.734 493.167C720.8 494.767 740.134 497.3 740.667 496.767C741.067 496.367 741.334 490.767 741.334 484.233C741.334 470.767 741.6 470.5 751.734 475.7C769.734 484.767 791.467 507.7 802 528.633C811.734 547.833 814.667 566.767 815.6 617.433C816.267 651.167 814.534 705.167 812.534 715.433L811.734 719.167H825.734H839.734L840.534 715.433C844 698.633 846.134 627.3 844.134 596.233C841.467 555.3 836.534 532.233 826.4 511.967C815.734 490.5 803.467 475.7 784.8 461.433L774.267 453.433L782.8 445.967C787.467 441.833 793.334 436.5 796 434.233L800.667 429.967L781.467 429.833H762.134L753.867 438.367C741.867 450.367 741.334 450.5 741.334 439.167V429.833H726H710.667V461.167Z" fill="black"/>
<path d="M675.2 505.167C666.267 507.034 646.934 513.7 646 515.167C645.6 515.834 651.734 537.834 652.667 538.9C652.934 539.167 658.667 537.434 665.6 534.9C677.2 530.9 679.2 530.5 695.334 530.5C710 530.5 713.867 530.9 720.534 533.434C729.867 537.034 743.2 545.434 748.934 551.434C758.8 561.967 768 579.567 768 587.834V591.167H748.134C737.2 591.167 726.4 591.567 724.134 591.967L720 592.767V605.167V617.567L744.534 618.1C758 618.367 769.467 618.9 770 619.434C771.467 620.9 766.934 636.234 763.067 642.9C761.067 646.367 755.867 652.767 751.334 657.167C729.067 679.3 692.667 685.967 659.467 674.234C654.534 672.367 649.867 671.434 649.334 672.1C648.267 673.167 642.667 692.234 642.667 694.767C642.667 696.5 654.8 701.034 667.334 703.967C680.4 707.167 709.6 707.167 721.867 704.1C759.2 694.767 788 668.634 798.667 634.5C802.4 622.5 803.6 601.434 801.334 587.567C794.667 545.034 761.6 512.1 718.134 504.5C707.334 502.634 685.067 503.034 675.2 505.167Z" fill="black"/>
<path d="M1003.33 626.767C1005.6 628.767 1014 636.5 1022.13 644.1C1030.27 651.7 1037.47 657.833 1038.13 657.833C1038.8 657.833 1040.8 651.433 1042.53 643.433C1044.13 635.567 1045.87 627.833 1046.27 626.1L1046.93 623.167H1023.2H999.333L1003.33 626.767Z" fill="black"/>
<path d="M170 739.933C170 740.6 171.867 746.733 174.133 753.667C191.733 807.667 221.067 860.067 257.067 902.067C293.2 944.2 346.667 988.2 403.733 1023L415.467 1030.07L493.867 951.8C562.933 882.867 572 873.267 569.467 872.333C564 870.333 542.533 861.4 534.667 857.933C520.533 851.8 484.267 833 476 827.667C440.8 804.6 410.667 772.6 397.2 743.933L394.8 739H282.4C220.533 739 170 739.4 170 739.933Z" fill="black"/>
<path d="M1177.83 739.933C1177.83 740.6 1175.97 746.733 1173.7 753.667C1156.1 807.667 1126.77 860.067 1090.77 902.067C1054.63 944.2 1001.17 988.2 944.101 1023L932.367 1030.07L853.967 951.8C784.901 882.867 775.834 873.267 778.367 872.333C783.834 870.333 805.301 861.4 813.167 857.933C827.301 851.8 863.567 833 871.834 827.667C907.034 804.6 937.167 772.6 950.634 743.933L953.034 739H1065.43C1127.3 739 1177.83 739.4 1177.83 739.933Z" fill="black"/>
<rect x="580" y="430" width="114" height="31" fill="black"/>
<rect x="663" y="456" width="31" height="263" fill="black"/>
</svg>
