<svg version="1.1" xmlns="http://www.w3.org/2000/svg" xmlns:xlink="http://www.w3.org/1999/xlink" width="1280" height="1096" viewBox="0,0,256,219.19792"><g fill="#ffffff" fill-rule="nonzero" stroke="none" stroke-width="1" stroke-linecap="butt" stroke-linejoin="miter" stroke-miterlimit="10" stroke-dasharray="" stroke-dashoffset="0" font-family="none" font-weight="none" font-size="none" text-anchor="none" style="mix-blend-mode: normal"><g transform="translate(0.0167,6.40196) scale(0.2,0.2)"><path d="M635.982,3c-19.982,2 -23.482,2.5 -27.982,3c0,1 -8.351,75.9667 -10.751,97.033c-0.934,8.134 -1.2,8.667 -4.934,9.6c-2.133,0.534 -11.066,2.534 -19.6,4.534c-8.666,1.866 -23.066,5.866 -32,8.8l-16.4,5.333l-4,-4.4c-2.133,-2.533 -11.733,-13.733 -21.333,-24.933c-24,-28.4004 -33.733,-39.867 -40,-47.2003l-5.333,-6.1334l-14.8,7.0667c-22.667,10.9333 -40.4,21.0667 -65.2,37.6c-28,18.667 -27.867,18.533 -26.934,21.467c0.4,1.333 5.067,13.733 10.4,27.733c5.2,13.867 11.867,31.333 14.534,38.667c2.8,7.333 6.666,17.6 8.666,22.933l3.734,9.6l-18,17.733c-9.867,9.734 -21.867,22.134 -26.534,27.6l-8.666,9.867l-16.534,-7.067c-9.2,-3.733 -22,-9.2 -28.666,-12c-37.334,-15.733 -51.2,-21.333 -52.267,-21.333c-1.467,0 -23.2,32.8 -32.933,49.867c-8.8,15.066 -22.134,42 -22.134,44.4c0,0.8 6.8,8.933 15.067,18c8.133,9.2 25.333,28.133 38.133,42.133l23.067,25.6h57.867h57.733l3.733,-7.733c46.667,-94.8 135.334,-162.4 238.4,-182.134c23.334,-4.4 35.467,-5.466 63.334,-5.466c58.4,0 106.666,11.866 157.333,38.4c59.2,31.066 110.933,83.2 141.333,142.533l7.334,14.4h54.671h54.53l4.4,-4.8c2.4,-2.667 9.33,-10.4 15.47,-17.067c6.13,-6.666 14,-15.466 17.6,-19.466c7.06,-8.134 25.46,-28.134 36.26,-39.867c3.87,-4.133 7.07,-8.133 7.07,-8.8c0,-6.8 -48.67,-88.8 -54,-90.8c-2,-0.8 -9.47,2.133 -75.87,30.133l-22.66,9.467l-7.2,-8.4c-10,-11.467 -42.405,-43.333 -50.005,-49.067c-3.333,-2.533 -6.266,-5.333 -6.266,-6.266c0,-0.934 5.2,-15.334 11.466,-32c6.267,-16.667 14.667,-38.8 18.534,-49.067c3.866,-10.267 6.8,-19.067 6.4,-19.6c-1.067,-1.867 -30.267,-20.5333 -46.4,-29.7333c-8.8,-5.0667 -24.4,-13.2 -34.667,-18.2667l-18.667,-9.0667l-9.733,10.4c-5.467,5.6 -22.933,23.8667 -39.067,40.5334l-29.333,30.2663l-6.267,-2c-12.933,-4.133 -41.466,-11.066 -54.666,-13.466c-11.6,-2 -13.734,-2.8 -14.267,-5.067c-0.267,-1.467 -4.415,-21.5 -9.482,-48c-6.915,-29.5 -12,-53.5 -12,-53.5c0,0 -12.651,-1.2 -22.518,-2c-19.466,-1.46667 -39.933,-1.46667 -59,0z"></path><path d="M647.466,256.767c-53.333,4.666 -111.466,28 -154.666,62.133c-46.667,36.8 -84.667,93.733 -100.267,149.867l-2,7.733h-58h-58l-17.333,-14l-17.2,-14h-23.334h-23.333v-14v-14h-40.667h-40.666v40.667v40.666h40.666h40.667v-14v-14h18.667h18.8l17.333,14l17.467,14h60h60l-0.8,3.6c-0.667,3.334 -3.467,31.867 -3.467,36c0,1.334 -30.133,1.734 -146,1.734h-146v-17.334v-17.333h-44h-43.99999v44.667v44.666h43.99999h44v-14.666v-14.667h146.4h146.4l1.733,14.267c0.934,8 2,16.666 2.4,19.333l0.667,5.067h-60.667h-60.8l-17.333,14l-17.333,14h-18.8h-18.667v-14.667v-14.667h-40.667h-40.666v41.334v41.333h40.666h40.667v-14v-14h23.067h22.933l17.333,-14l17.334,-13.867l60.4,-0.133c53.333,0 60.266,0.267 60.266,2c0,4.133 12.4,34.933 19.6,48.667c46.134,88.4 133.2,147.333 232.267,157.333c86.133,8.533 172.933,-22.4 234.8,-84c23.333,-23.2 39.867,-46 55.467,-76.667l9.466,-18.666l32.267,-0.667c31.997,-0.667 125.967,0 159.967,0c0,-15 0,-24.167 0,-37c0,0 -167.967,-0.333 -173.834,-0.333c-5.2,0 -6.133,-0.4 -5.466,-2.4c2.133,-7.2 6.266,-30.667 6.933,-40.667l0.933,-11.6h45.734h45.73h146.14c0,-18.5 0.33,-36.633 0.33,-38.5c-5,0 -148.2,-0.167 -188.07,-0.167h-49.73l-0.4,-7.066c-0.267,-6.534 -3.467,-28.8 -5.067,-35.334l-0.667,-2.933h57.864c48.8,0 57.6,0 60.57,0c1.53,0 4.47,0 7,0c2.53,0 3.63,0 7.5,0c2.63,0 11.07,0 56.53,0h54.14h73.83c0,-5.067 0,0 0,-5.067v-9.2v-4.266v-6.267v-6.267v-7.6h-200.63h-128.004l-6.266,-14.4c-9.867,-22.8 -26.667,-50.266 -42,-68.8c-17.2,-20.8 -44.534,-45.2 -67.2,-60c-54.267,-35.333 -121.067,-51.733 -186.934,-45.866zM698,281.833c34.133,3.2 65.066,12 94.666,26.534c55.067,27.333 96,68.4 122.8,123.066c33.2,68.134 36,146.4 7.867,217.067c-31.333,78.667 -100,138.667 -182.8,159.867c-22.933,5.866 -36,7.333 -65.867,7.333c-24.133,0 -31.2,-0.4 -44.533,-2.933c-30.533,-5.734 -51.2,-12.667 -76.933,-25.734c-69.067,-35.066 -118.534,-96.933 -137.867,-172.533c-6.133,-24.133 -7.867,-38.933 -7.867,-66.667c0,-73.333 27.867,-139.2 80.134,-190.133c16.666,-16.133 29.6,-26.4 46.666,-37.067c48.4,-30 107.6,-44 163.734,-38.8zM168,461.167v15.333h-15.334h-15.333v-15.333v-15.334h15.333h15.334zM63.9997,553.167v19.333h-18.6667h-18.6667v-19.333v-19.334h18.6667h18.6667zM168,647.167v16h-15.334h-15.333v-16v-16h15.333h15.334z"></path><path d="M493.333,395.167v13.333h29.333h29.334v10.667v299.833h15.5h15.5l-0.334,-299.833v-10.667h131.334h131.333v-13.333v-13.334h-176h-176z"></path><path d="M710.667,461.167v31.333l3.067,0.667c7.066,1.6 26.4,4.133 26.933,3.6c0.4,-0.4 0.667,-6 0.667,-12.534c0,-13.466 0.266,-13.733 10.4,-8.533c18,9.067 39.733,32 50.266,52.933c9.734,19.2 12.667,38.134 13.6,88.8c0.667,33.734 -1.066,87.734 -3.066,98l-0.8,3.734h14h14l0.8,-3.734c3.466,-16.8 5.6,-88.133 3.6,-119.2c-2.667,-40.933 -7.6,-64 -17.734,-84.266c-10.666,-21.467 -22.933,-36.267 -41.6,-50.534l-10.533,-8l8.533,-7.466c4.667,-4.134 10.534,-9.467 13.2,-11.734l4.667,-4.266l-19.2,-0.134h-19.333l-8.267,8.534c-12,12 -12.533,12.133 -12.533,0.8v-9.334h-15.334h-15.333z"></path><path d="M675.2,505.167c-8.933,1.867 -28.266,8.533 -29.2,10c-0.4,0.667 5.734,22.667 6.667,23.733c0.267,0.267 6,-1.466 12.933,-4c11.6,-4 13.6,-4.4 29.734,-4.4c14.666,0 18.533,0.4 25.2,2.934c9.333,3.6 22.666,12 28.4,18c9.866,10.533 19.066,28.133 19.066,36.4v3.333h-19.866c-10.934,0 -21.734,0.4 -24,0.8l-4.134,0.8v12.4v12.4l24.534,0.533c13.466,0.267 24.933,0.8 25.466,1.334c1.467,1.466 -3.066,16.8 -6.933,23.466c-2,3.467 -7.2,9.867 -11.733,14.267c-22.267,22.133 -58.667,28.8 -91.867,17.067c-4.933,-1.867 -9.6,-2.8 -10.133,-2.134c-1.067,1.067 -6.667,20.134 -6.667,22.667c0,1.733 12.133,6.267 24.667,9.2c13.066,3.2 42.266,3.2 54.533,0.133c37.333,-9.333 66.133,-35.466 76.8,-69.6c3.733,-12 4.933,-33.066 2.667,-46.933c-6.667,-42.533 -39.734,-75.467 -83.2,-83.067c-10.8,-1.866 -33.067,-1.466 -42.934,0.667z"></path><path d="M1003.33,626.767c2.27,2 10.67,9.733 18.8,17.333c8.14,7.6 15.34,13.733 16,13.733c0.67,0 2.67,-6.4 4.4,-14.4c1.6,-7.866 3.34,-15.6 3.74,-17.333l0.66,-2.933h-23.73h-23.867z"></path><path d="M170,739.933c0,0.667 1.867,6.8 4.133,13.734c17.6,54 46.934,106.4 82.934,148.4c36.133,42.133 89.6,86.133 146.666,120.933l11.734,7.07l78.4,-78.27c69.066,-68.933 78.133,-78.533 75.6,-79.467c-5.467,-2 -26.934,-10.933 -34.8,-14.4c-14.134,-6.133 -50.4,-24.933 -58.667,-30.266c-35.2,-23.067 -65.333,-55.067 -78.8,-83.734l-2.4,-4.933h-112.4c-61.867,0 -112.4,0.4 -112.4,0.933z"></path><path d="M1177.83,739.933c0,0.667 -1.86,6.8 -4.13,13.734c-17.6,54 -46.93,106.4 -82.93,148.4c-36.14,42.133 -89.6,86.133 -146.669,120.933l-11.734,7.07l-78.4,-78.27c-69.066,-68.933 -78.133,-78.533 -75.6,-79.467c5.467,-2 26.934,-10.933 34.8,-14.4c14.134,-6.133 50.4,-24.933 58.667,-30.266c35.2,-23.067 65.333,-55.067 78.8,-83.734l2.4,-4.933h112.396c61.87,0 112.4,0.4 112.4,0.933z"></path><rect x="580" y="430" width="114" height="31"></rect><rect x="663" y="456" width="31" height="263"></rect></g></g></svg>