<svg width="329" height="272" viewBox="0 0 329 272" fill="none" xmlns="http://www.w3.org/2000/svg">
<path fill-rule="evenodd" clip-rule="evenodd" d="M231.5 2.49999C240.044 2.3767 244.377 6.71003 244.5 15.5C244.031 23.8065 239.698 27.6399 231.5 27C224.566 20.8873 223.066 13.7206 227 5.49999C228.652 4.60063 230.152 3.60063 231.5 2.49999Z" fill="#8018F4"/>
<path fill-rule="evenodd" clip-rule="evenodd" d="M177.5 12.5C182.685 12.5144 185.518 15.181 186 20.5C186.667 24.1667 186.667 27.8333 186 31.5C183.524 40.8775 181.691 50.3775 180.5 60C180.35 65.0909 182.016 69.4242 185.5 73C186.167 73.6667 186.833 73.6667 187.5 73C192.866 68.4345 195.699 62.6011 196 55.5C196.912 51.2297 199.412 49.3963 203.5 50C204.804 50.804 205.471 51.9707 205.5 53.5C203.469 57.7626 201.969 62.0959 201 66.5C202.049 67.5171 203.216 67.6838 204.5 67C215.899 59.7106 221.733 49.2106 222 35.5C226.481 32.5799 230.481 33.2465 234 37.5C236.239 42.8317 235.572 47.8317 232 52.5C226.333 58.8333 220.667 65.1667 215 71.5C212.834 74.333 211.334 77.4997 210.5 81C210.946 82.7259 211.779 84.2259 213 85.5C217.856 79.6458 223.023 74.1458 228.5 69C232.508 67.5844 234.841 68.9177 235.5 73C235.091 75.3207 234.257 77.4874 233 79.5C228.786 83.3821 224.286 86.8821 219.5 90C218.619 91.793 219.286 92.4597 221.5 92C227.064 87.3558 233.397 84.0225 240.5 82C243.328 79.7519 246.328 77.7519 249.5 76C255.941 75.7014 257.774 78.5348 255 84.5C253.442 86.3589 251.609 87.8589 249.5 89C244.711 91.148 240.044 93.4814 235.5 96C238.298 97.3721 240.965 96.8721 243.5 94.5C246.786 94.6761 248.452 96.3428 248.5 99.5C248.146 102.442 247.48 105.275 246.5 108C250.167 110.5 253.833 113 257.5 115.5C258.814 114.687 259.981 113.687 261 112.5C264.989 100.348 271.155 89.5148 279.5 80C282.862 78.7072 284.862 79.7072 285.5 83C281.445 92.4405 276.112 101.107 269.5 109C272.561 110.116 275.728 110.949 279 111.5C282.744 117.789 282.244 123.622 277.5 129C272.956 130.971 268.289 132.637 263.5 134C260.379 137.743 257.379 141.576 254.5 145.5C255.09 146.799 256.09 147.632 257.5 148C262.69 147.696 267.19 149.196 271 152.5C271.929 157.629 269.763 160.296 264.5 160.5C261.972 160.237 259.639 159.404 257.5 158C249.576 156.229 247.409 159.063 251 166.5C255.582 170.545 260.749 173.711 266.5 176C270.092 178.713 273.592 181.547 277 184.5C279.788 188.67 280.121 193.003 278 197.5C275.936 198.591 273.769 198.758 271.5 198C267.5 194.667 263.5 191.333 259.5 188C254.301 186.182 248.967 184.849 243.5 184C241.511 181.044 239.344 178.211 237 175.5C236.13 176.108 235.63 176.941 235.5 178C239.311 185.503 237.311 188.17 229.5 186C227.268 183.265 224.601 181.098 221.5 179.5C217.053 180.89 213.053 183.056 209.5 186C214.626 193.46 220.793 199.96 228 205.5C230.65 214.512 227.483 217.345 218.5 214C213.167 207.333 207.833 200.667 202.5 194C200 193.833 198.833 195 199 197.5C200.378 199.213 202.045 200.547 204 201.5C205.333 207.167 203.333 208.833 198 206.5C198.081 209.542 196.914 212.375 194.5 215C191.144 215.215 187.811 215.215 184.5 215C182.199 217.109 180.532 219.609 179.5 222.5C180.302 233.744 184.135 243.744 191 252.5C194.695 257.818 194.195 262.651 189.5 267C181.387 268.239 176.554 264.739 175 256.5C174.912 247.163 174.912 237.83 175 228.5C173.877 225.751 172.377 223.251 170.5 221C168.591 220.552 167.424 221.385 167 223.5C165.855 228.083 165.189 232.749 165 237.5C163.174 241.037 160.84 241.371 158 238.5C157.191 232.251 157.358 226.084 158.5 220C157.251 218.176 156.085 218.343 155 220.5C154.667 224.167 154.333 227.833 154 231.5C153.424 234.124 152.09 234.791 150 233.5C150.165 221.288 147.831 220.621 143 231.5C141.007 233.378 138.841 233.712 136.5 232.5C137.954 230.737 137.62 229.403 135.5 228.5C130.6 232.733 129.267 231.566 131.5 225C129 223.167 126.833 221 125 218.5C123.488 219.257 122.154 220.257 121 221.5C119.46 227.327 117.46 232.993 115 238.5C111.709 241.437 109.542 240.77 108.5 236.5C112.228 226.984 115.561 217.317 118.5 207.5C117.855 206.354 117.022 205.354 116 204.5C113.667 205.5 112 207.167 111 209.5C108.59 215.318 105.923 220.985 103 226.5C100.525 229.524 97.525 230.19 93.9996 228.5C93.6749 226.447 94.0083 224.447 94.9996 222.5C100.167 215.333 105.333 208.167 110.5 201C109.833 200.333 109.167 199.667 108.5 199C103.839 198.166 99.1721 197.832 94.4996 198C89.211 201.62 84.211 205.62 79.4996 210C77.3759 211.582 75.2092 211.749 72.9996 210.5C72.448 207.581 73.1147 204.914 74.9996 202.5C79.3779 198.065 84.2112 194.232 89.4996 191C92.4432 188.278 94.7765 185.111 96.4996 181.5C95.4593 179.625 93.9593 178.292 91.9996 177.5C88.5576 179.138 85.0576 180.638 81.4996 182C76.3543 182.398 75.1876 180.231 77.9996 175.5C81.9654 172.536 85.6321 169.203 88.9996 165.5C89.9855 163.075 89.3189 161.409 86.9996 160.5C82.4101 162.924 77.5768 164.09 72.4996 164C70.6458 160.274 71.6458 157.608 75.4996 156C79.5573 155.66 83.5573 154.993 87.4996 154C91.9166 150.363 91.4166 147.863 85.9996 146.5C82.1084 147.464 78.2751 148.63 74.4996 150C72.1663 150.667 69.8329 150.667 67.4996 150C66.4234 148.274 66.2567 146.441 66.9996 144.5C72.375 140.818 78.375 138.818 84.9996 138.5C88.1546 139.278 91.3212 139.445 94.4996 139C95.9096 138.632 96.9096 137.799 97.4996 136.5C96.4713 134.639 94.9713 133.305 92.9996 132.5C92.7485 130.567 92.2485 128.734 91.4996 127C87.1448 125.997 82.9782 124.497 78.9996 122.5C77.9577 119.196 79.1243 117.029 82.4996 116C79.4238 113.38 76.2572 110.88 72.9996 108.5C70.381 103.954 71.5477 100.954 76.4996 99.5C81.6132 102.771 86.6132 106.271 91.4996 110C93.6402 110.884 95.3069 110.384 96.4996 108.5C94.7329 105.23 92.3996 102.397 89.4996 100C85.6663 96.8333 81.8329 93.6667 77.9996 90.5C74.6834 83.9095 76.5167 80.4095 83.4996 80C86.7037 82.8688 89.537 86.0354 91.9996 89.5C93.2291 88.7248 93.5624 87.7248 92.9996 86.5C85.4004 74.2336 75.2338 64.7336 62.4996 58C55.4567 52.4046 51.1233 45.2379 49.4996 36.5C49.3258 34.3066 49.9925 32.4733 51.4996 31C55.0313 28.4762 58.698 28.1429 62.4996 30C67.0456 34.8774 71.2123 40.044 74.9996 45.5C79.6984 50.5336 84.6984 55.2002 89.9996 59.5C93.7409 67.5678 99.2409 74.0678 106.5 79C110.833 79.6667 115.167 79.6667 119.5 79C122.381 77.7494 124.214 75.5827 125 72.5C124.371 68.2182 124.038 63.8849 124 59.5C125.826 57.9262 127.993 57.0929 130.5 57C131.357 56.3109 132.023 55.4776 132.5 54.5C130.767 48.6085 130.267 42.6085 131 36.5C135.728 32.1029 139.395 32.7696 142 38.5C142.333 46.1667 142.667 53.8333 143 61.5C147.781 66.4901 153.614 68.3234 160.5 67C163.515 64.1366 165.349 60.6366 166 56.5C167.039 45.8387 168.039 35.172 169 24.5C170.165 19.1194 172.998 15.1194 177.5 12.5Z" fill="#8018F4"/>
<path fill-rule="evenodd" clip-rule="evenodd" d="M251.5 39.5C254.68 39.1762 255.847 40.5096 255 43.5C253.68 47.1816 251.18 48.6816 247.5 48C246.493 44.1759 247.826 41.3426 251.5 39.5Z" fill="#8018F4"/>
<path fill-rule="evenodd" clip-rule="evenodd" d="M321.5 112.5C323.948 112.085 325.281 113.085 325.5 115.5C323.81 120.522 321.81 120.688 319.5 116C319.978 114.697 320.645 113.531 321.5 112.5Z" fill="#8018F4"/>
<path fill-rule="evenodd" clip-rule="evenodd" d="M30.5 123.5C36.9339 123.093 38.7673 125.759 36 131.5C32.1094 134.652 29.2761 133.985 27.5 129.5C27.9837 127.199 28.9837 125.199 30.5 123.5Z" fill="#8018F4"/>
<path fill-rule="evenodd" clip-rule="evenodd" d="M17.5004 144.5C26.062 144.341 28.2287 148.007 24.0004 155.5C20.9538 158.48 17.4538 159.147 13.5004 157.5C10.4468 151.917 11.7801 147.583 17.5004 144.5Z" fill="#8018F4"/>
<path fill-rule="evenodd" clip-rule="evenodd" d="M48.5 154.5C51.5719 154.183 54.5719 154.516 57.5 155.5C53.2519 160.631 47.9186 162.964 41.5 162.5C43.1691 159.17 45.5025 156.503 48.5 154.5Z" fill="#8018F4"/>
<path fill-rule="evenodd" clip-rule="evenodd" d="M317.5 157.5C323.377 157.206 325.877 159.872 325 165.5C321.606 171.596 316.939 172.93 311 169.5C309.781 163.601 311.948 159.601 317.5 157.5Z" fill="#8018F4"/>
<path fill-rule="evenodd" clip-rule="evenodd" d="M10.5005 170.5C14.4139 170.241 16.7473 172.074 17.5005 176C16.4119 183.288 12.4119 186.454 5.50045 185.5C2.93636 179.192 4.60303 174.192 10.5005 170.5Z" fill="#8018F4"/>
<path fill-rule="evenodd" clip-rule="evenodd" d="M290.5 183.5C295.955 182.888 299.288 185.222 300.5 190.5C298.853 195.31 295.686 196.643 291 194.5C289.651 190.823 289.485 187.156 290.5 183.5Z" fill="#8018F4"/>
<path fill-rule="evenodd" clip-rule="evenodd" d="M196.5 215.5C199.452 216.359 201.285 218.359 202 221.5C203.535 225.802 203.702 230.135 202.5 234.5C197.271 229.147 195.271 222.813 196.5 215.5Z" fill="#8018F4"/>
</svg>
