<svg width="800" height="800" viewBox="0 0 800 800" fill="none" xmlns="http://www.w3.org/2000/svg">
<path d="M516.666 250C516.666 314.433 464.433 366.667 400 366.667C335.566 366.667 283.333 314.433 283.333 250C283.333 185.567 335.566 133.333 400 133.333C464.433 133.333 516.666 185.567 516.666 250Z" fill="#59636E"/>
<path d="M600 550C600 614.433 510.457 666.667 400 666.667C289.543 666.667 200 614.433 200 550C200 485.567 289.543 433.333 400 433.333C510.457 433.333 600 485.567 600 550Z" fill="#59636E"/>
<path d="M237.402 166.667C243.317 166.667 249.092 167.247 254.669 168.352C241.083 192.482 233.334 220.336 233.334 250C233.334 278.942 240.711 306.161 253.687 329.879C248.415 330.861 242.971 331.375 237.402 331.375C190.255 331.375 152.034 294.504 152.034 249.021C152.034 203.538 190.255 166.667 237.402 166.667Z" fill="#59636E"/>
<path d="M181.578 632.867C162.648 610.237 150 582.467 150 550C150 518.527 161.886 491.467 179.86 469.223C116.37 474.15 66.667 508.873 66.667 550.98C66.667 593.48 117.244 628.46 181.578 632.867Z" fill="#59636E"/>
<path d="M566.663 250C566.663 278.942 559.287 306.161 546.31 329.879C551.583 330.861 557.027 331.375 562.597 331.375C609.743 331.375 647.963 294.504 647.963 249.021C647.963 203.538 609.743 166.667 562.597 166.667C556.68 166.667 550.907 167.247 545.33 168.352C558.913 192.482 566.663 220.336 566.663 250Z" fill="#59636E"/>
<path d="M618.42 632.867C682.753 628.46 733.33 593.48 733.33 550.98C733.33 508.873 683.627 474.15 620.137 469.223C638.11 491.467 649.997 518.527 649.997 550C649.997 582.467 637.35 610.237 618.42 632.867Z" fill="#59636E"/>
</svg>
