<svg width="800" height="800" viewBox="0 0 800 800" fill="none" xmlns="http://www.w3.org/2000/svg">
<path fill-rule="evenodd" clip-rule="evenodd" d="M83.9737 260.758C66.667 292.376 66.667 330.516 66.667 406.797V457.5C66.667 587.527 66.667 652.543 105.719 692.937C144.772 733.333 207.626 733.333 333.334 733.333H466.667C592.374 733.333 655.23 733.333 694.28 692.937C733.334 652.543 733.334 587.527 733.334 457.5V406.797C733.334 330.516 733.334 292.376 716.027 260.758C698.72 229.14 667.104 209.517 603.867 170.271L537.2 128.896C470.354 87.4097 436.93 66.6667 400 66.6667C363.07 66.6667 329.647 87.4097 262.801 128.896L196.135 170.271C132.899 209.517 101.28 229.14 83.9737 260.758ZM375 600C375 613.807 386.194 625 400 625C413.807 625 425 613.807 425 600V500C425 486.193 413.807 475 400 475C386.194 475 375 486.193 375 500V600Z" fill="#59636E"/>
</svg>
