<svg width="800" height="800" viewBox="0 0 800 800" fill="none" xmlns="http://www.w3.org/2000/svg">
<path d="M585.923 147.717L519.257 112.732C460.737 82.022 431.477 66.6667 400 66.6667C368.523 66.6667 339.263 82.022 280.743 112.732L270.019 118.36L567.453 288.322L701.343 221.377C679.803 196.983 645.05 178.745 585.923 147.717Z" fill="#59636E"/>
<path d="M724.947 265.478L591.667 332.118V433.333C591.667 447.14 580.473 458.333 566.667 458.333C552.86 458.333 541.667 447.14 541.667 433.333V357.117L425 415.45V730.133C448.93 724.173 476.16 709.883 519.257 687.267L585.923 652.283C657.647 614.643 693.507 595.827 713.42 562.01C733.333 528.193 733.333 486.11 733.333 401.95V398.05C733.333 334.963 733.333 295.519 724.947 265.478Z" fill="#59636E"/>
<path d="M375 730.133V415.45L75.0545 265.478C66.6665 295.519 66.6665 334.963 66.6665 398.05V401.95C66.6665 486.11 66.6665 528.193 86.5798 562.01C106.493 595.827 142.354 614.643 214.076 652.283L280.743 687.267C323.841 709.883 351.07 724.173 375 730.133Z" fill="#59636E"/>
<path d="M98.6562 221.377L400 372.05L513.707 315.197L217.485 145.928L214.076 147.717C154.952 178.745 120.197 196.983 98.6562 221.377Z" fill="#59636E"/>
</svg>
