<svg width="800" height="800" viewBox="0 0 800 800" fill="none" xmlns="http://www.w3.org/2000/svg">
<path d="M300.033 333.333C373.671 333.333 433.366 273.638 433.366 200C433.366 126.362 373.671 66.6667 300.033 66.6667C226.395 66.6667 166.699 126.362 166.699 200C166.699 273.638 226.395 333.333 300.033 333.333Z" fill="#59636E"/>
<path d="M300.033 700.033C428.899 700.033 533.366 640.338 533.366 566.7C533.366 493.062 428.899 433.367 300.033 433.367C171.166 433.367 66.6992 493.062 66.6992 566.7C66.6992 640.338 171.166 700.033 300.033 700.033Z" fill="#59636E"/>
<path d="M699.987 566.683C699.987 621.91 632.137 666.68 549.293 666.68C573.7 640.003 590.483 606.517 590.483 566.727C590.483 526.893 573.66 493.377 549.207 466.683C632.05 466.683 699.987 511.453 699.987 566.683Z" fill="#59636E"/>
<path d="M599.987 200.024C599.987 255.253 555.217 300.024 499.987 300.024C487.943 300.024 476.4 297.896 465.707 293.994C481.477 266.257 490.483 234.174 490.483 199.987C490.483 165.826 481.49 133.765 465.74 106.042C476.423 102.149 487.957 100.024 499.987 100.024C555.217 100.024 599.987 144.796 599.987 200.024Z" fill="#59636E"/>
</svg>
