<svg width="800" height="800" viewBox="0 0 800 800" fill="none" xmlns="http://www.w3.org/2000/svg">
<path fill-rule="evenodd" clip-rule="evenodd" d="M66.6665 400V266.667C66.6665 172.386 66.6665 125.245 95.9558 95.956C125.245 66.6667 172.386 66.6667 266.666 66.6667H533.333C627.613 66.6667 674.753 66.6667 704.043 95.956C733.333 125.245 733.333 172.386 733.333 266.667V400C733.333 494.28 733.333 541.42 704.043 570.71C688.166 586.59 667.043 593.86 636.006 597.187C633.54 593.857 631.206 591.233 629.54 589.403C625.67 585.147 620.76 580.307 616 575.613L566.233 526.54L547.856 507.923C535.776 437.17 474.183 383.333 400.003 383.333C325.82 383.333 264.226 437.17 252.148 507.923L233.77 526.54L184.006 575.61C179.246 580.303 174.336 585.143 170.464 589.403C168.798 591.233 166.463 593.857 163.996 597.187C132.959 593.86 111.834 586.59 95.9558 570.71C66.6665 541.42 66.6665 494.28 66.6665 400ZM300 175C286.193 175 275 186.193 275 200C275 213.807 286.193 225 300 225H500C513.806 225 525 213.807 525 200C525 186.193 513.806 175 500 175H300ZM208.333 316.667C208.333 302.86 219.526 291.667 233.333 291.667H566.666C580.473 291.667 591.666 302.86 591.666 316.667C591.666 330.474 580.473 341.667 566.666 341.667H233.333C219.526 341.667 208.333 330.474 208.333 316.667Z" fill="#59636E"/>
<path d="M500 533.333C500 588.563 455.23 633.333 400 633.333C344.77 633.333 300 588.563 300 533.333C300 478.103 344.77 433.333 400 433.333C455.23 433.333 500 478.103 500 533.333Z" fill="#59636E"/>
<path d="M300.037 530.58C300.012 531.497 300 532.413 300 533.333C300 588.563 344.77 633.333 400 633.333C455.23 633.333 500 588.563 500 533.333C500 532.413 499.987 531.497 499.963 530.58C498.503 476.623 454.307 433.333 400 433.333C348.223 433.333 305.637 472.683 300.516 523.11C300.266 525.573 300.105 528.067 300.037 530.58Z" fill="#59636E"/>
<path d="M255.857 574.98L219.841 610.493C209.039 621.147 203.638 626.473 201.769 630.983C197.51 641.26 201.154 652.663 210.428 658.07C214.497 660.44 221.837 661.18 236.518 662.66C244.807 663.493 248.951 663.91 252.422 665.18C260.193 668.017 266.238 673.977 269.115 681.64C270.4 685.063 270.823 689.15 271.67 697.323C273.17 711.8 273.919 719.037 276.326 723.05C281.808 732.197 293.37 735.79 303.793 731.59C308.367 729.747 313.769 724.42 324.571 713.767L360.583 678.1C310.168 664.407 270.306 625.08 255.857 574.98Z" fill="#59636E"/>
<path d="M439.417 678.1L475.43 713.767C486.23 724.42 491.633 729.747 496.207 731.59C506.63 735.79 518.19 732.197 523.673 723.05C526.08 719.037 526.83 711.8 528.33 697.323C529.177 689.15 529.6 685.063 530.883 681.64C533.763 673.977 539.806 668.017 547.576 665.18C551.05 663.91 555.193 663.493 563.483 662.66C578.163 661.18 585.503 660.44 589.573 658.07C598.847 652.663 602.49 641.26 598.23 630.983C596.363 626.473 590.96 621.147 580.16 610.493L544.143 574.98C529.693 625.08 489.83 664.407 439.417 678.1Z" fill="#59636E"/>
</svg>
