<svg width="800" height="800" viewBox="0 0 800 800" fill="none" xmlns="http://www.w3.org/2000/svg">
<path fill-rule="evenodd" clip-rule="evenodd" d="M358.333 66.6667H425C519.28 66.6667 566.42 66.6667 595.71 95.956C625 125.245 625 172.386 625 266.667V533.333C625 627.613 625 674.753 595.71 704.043C566.42 733.333 519.28 733.333 425 733.333H358.333C264.052 733.333 216.912 733.333 187.623 704.043C158.334 674.753 158.333 627.613 158.333 533.333V266.667C158.333 172.386 158.334 125.245 187.623 95.956C216.912 66.6667 264.052 66.6667 358.333 66.6667ZM266.667 433.333C266.667 419.527 277.86 408.333 291.667 408.333H491.667C505.473 408.333 516.667 419.527 516.667 433.333C516.667 447.14 505.473 458.333 491.667 458.333H291.667C277.86 458.333 266.667 447.14 266.667 433.333ZM266.667 300C266.667 286.193 277.86 275 291.667 275H491.667C505.473 275 516.667 286.193 516.667 300C516.667 313.807 505.473 325 491.667 325H291.667C277.86 325 266.667 313.807 266.667 300ZM266.667 566.667C266.667 552.86 277.86 541.667 291.667 541.667H391.667C405.473 541.667 416.667 552.86 416.667 566.667C416.667 580.473 405.473 591.667 391.667 591.667H291.667C277.86 591.667 266.667 580.473 266.667 566.667Z" fill="#59636E"/>
<path fill-rule="evenodd" clip-rule="evenodd" d="M58.3335 141.667C72.1405 141.667 83.3335 152.86 83.3335 166.667V633.333C83.3335 647.14 72.1405 658.333 58.3335 658.333C44.5265 658.333 33.3335 647.14 33.3335 633.333V166.667C33.3335 152.86 44.5265 141.667 58.3335 141.667Z" fill="#59636E"/>
<path fill-rule="evenodd" clip-rule="evenodd" d="M725 141.667C738.807 141.667 750 152.86 750 166.667V633.333C750 647.14 738.807 658.333 725 658.333C711.193 658.333 700 647.14 700 633.333V166.667C700 152.86 711.193 141.667 725 141.667Z" fill="#59636E"/>
</svg>
