<svg width="800" height="800" viewBox="0 0 800 800" fill="none" xmlns="http://www.w3.org/2000/svg">
<path d="M234.12 77.0193C254.74 84.032 280.248 95.2087 304.955 111.87C334.896 104.151 366.87 100 400.003 100C433.1 100 465.043 104.143 494.96 111.847C519.66 95.1937 545.163 84.0227 565.776 77.0137C589.006 69.1157 622.116 56.291 641.773 78.068C655.12 92.8527 658.43 117.666 660.81 136.584C663.47 157.723 664.09 185.279 657.093 212.599C683.856 247.159 700.003 288.415 700.003 333.333C700.003 401.407 663.133 460.493 608.563 501.42C583.446 520.257 554.246 535.577 522.223 546.627C529.37 562.97 533.336 581.023 533.336 600V700C533.336 718.41 518.41 733.333 500.003 733.333H300.001C281.592 733.333 266.668 718.41 266.668 700V666.957C234.824 670.857 208.137 667.407 185.42 657.77C161.693 647.703 145.156 632.09 132.727 617.173C120.937 603.027 108.083 571.163 89.4597 564.957C71.995 559.133 62.5563 540.257 68.3777 522.793C74.1993 505.327 93.0767 495.89 110.541 501.71C132.734 509.107 147.184 525.113 157.106 537.953C173.075 558.617 186.121 585.65 211.456 596.397C221.875 600.817 237.182 603.75 261.076 600.457L266.67 599.34C266.761 580.603 270.716 562.78 277.78 546.627C245.757 535.577 216.555 520.257 191.44 501.42C136.868 460.493 100.001 401.407 100.001 333.333C100.001 288.467 116.109 247.255 142.816 212.72C135.793 185.378 136.405 157.793 139.064 136.632C139.117 136.207 139.17 135.781 139.224 135.352C141.653 115.97 144.516 93.1277 158.102 78.0717C177.755 56.2933 210.892 69.1203 234.12 77.0193Z" fill="#59636E"/>
</svg>
