<svg width="800" height="800" viewBox="0 0 800 800" fill="none" xmlns="http://www.w3.org/2000/svg">
<path d="M466.667 133.333H333.334C207.626 133.333 144.772 133.333 105.719 172.386C77.6014 200.504 69.7287 240.961 67.5244 308.333H732.477C730.274 240.961 722.4 200.504 694.28 172.386C655.23 133.333 592.374 133.333 466.667 133.333Z" fill="#59636E"/>
<path fill-rule="evenodd" clip-rule="evenodd" d="M466.667 666.667H333.334C207.626 666.667 144.772 666.667 105.719 627.613C66.667 588.563 66.667 525.707 66.667 400C66.667 385.27 66.667 371.4 66.73 358.333H733.27C733.334 371.4 733.334 385.27 733.334 400C733.334 525.707 733.334 588.563 694.28 627.613C655.23 666.667 592.374 666.667 466.667 666.667ZM534.824 408.333C549.254 408.33 562.48 408.33 573.24 409.777C585.09 411.37 597.614 415.117 607.914 425.42C618.217 435.72 621.964 448.243 623.557 460.093C625.004 470.853 625.004 484.08 625 498.51V501.49C625.004 515.92 625.004 529.147 623.557 539.907C621.964 551.757 618.217 564.28 607.914 574.58C597.614 584.883 585.09 588.63 573.24 590.223C562.48 591.67 549.254 591.67 534.824 591.667H533.334H531.844C517.414 591.67 504.187 591.67 493.427 590.223C481.577 588.63 469.054 584.883 458.754 574.58C448.45 564.28 444.704 551.757 443.11 539.907C441.664 529.147 441.664 515.92 441.667 501.49V500V498.51C441.664 484.08 441.664 470.853 443.11 460.093C444.704 448.243 448.45 435.72 458.754 425.42C469.054 415.117 481.577 411.37 493.427 409.777C504.187 408.33 517.414 408.33 531.844 408.333H534.824ZM175 450C175 436.193 186.193 425 200 425H266.667C280.474 425 291.667 436.193 291.667 450C291.667 463.807 280.474 475 266.667 475H200C186.193 475 175 463.807 175 450ZM175 550C175 536.193 186.193 525 200 525H333.334C347.14 525 358.334 536.193 358.334 550C358.334 563.807 347.14 575 333.334 575H200C186.193 575 175 563.807 175 550Z" fill="#59636E"/>
<path d="M494.11 460.773L494.19 460.73C494.254 460.697 494.364 460.64 494.534 460.573C495.257 460.273 496.87 459.763 500.09 459.33C507.114 458.387 516.914 458.333 533.334 458.333C549.754 458.333 559.554 458.387 566.577 459.33C569.797 459.763 571.41 460.273 572.134 460.573C572.304 460.64 572.414 460.697 572.477 460.73L572.56 460.773L572.604 460.857C572.637 460.92 572.694 461.03 572.76 461.2C573.06 461.923 573.57 463.537 574.004 466.757C574.947 473.78 575 483.58 575 500C575 516.42 574.947 526.22 574.004 533.243C573.57 536.463 573.06 538.077 572.76 538.8C572.694 538.97 572.637 539.08 572.604 539.143L572.56 539.227L572.477 539.27C572.414 539.303 572.304 539.36 572.134 539.427C571.41 539.727 569.797 540.237 566.577 540.67C559.554 541.613 549.754 541.667 533.334 541.667C516.914 541.667 507.114 541.613 500.09 540.67C496.87 540.237 495.257 539.727 494.534 539.427C494.364 539.36 494.254 539.303 494.19 539.27L494.107 539.227L494.064 539.143C494.03 539.08 493.974 538.97 493.907 538.8C493.607 538.077 493.097 536.463 492.664 533.243C491.72 526.22 491.667 516.42 491.667 500C491.667 483.58 491.72 473.78 492.664 466.757C493.097 463.537 493.607 461.923 493.907 461.2C493.974 461.03 494.03 460.92 494.064 460.857L494.11 460.773Z" fill="#59636E"/>
</svg>
