<svg width="800" height="800" viewBox="0 0 800 800" fill="none" xmlns="http://www.w3.org/2000/svg">
<path d="M283.663 66.667H516.334C524.084 66.665 530.024 66.6637 535.217 67.1717C572.144 70.784 602.37 92.986 615.187 122.893H184.81C197.627 92.986 227.852 70.784 264.779 67.1717C269.973 66.6637 275.914 66.665 283.663 66.667Z" fill="#59636E"/>
<path d="M210.351 157.437C163.996 157.437 125.988 185.429 113.303 222.564C113.039 223.338 112.785 224.116 112.543 224.898C125.815 220.879 139.627 218.253 153.609 216.461C189.622 211.844 235.133 211.846 288.001 211.849H517.737C570.603 211.846 616.117 211.844 652.13 216.461C666.11 218.253 679.923 220.879 693.193 224.898C692.953 224.116 692.7 223.338 692.433 222.564C679.75 185.429 641.74 157.437 595.387 157.437H210.351Z" fill="#59636E"/>
<path fill-rule="evenodd" clip-rule="evenodd" d="M510.92 251.401H289.08C176.586 251.401 120.339 251.401 88.7443 284.296C57.1493 317.19 64.583 368.01 79.4507 469.653L93.5497 566.037C105.209 645.747 111.039 685.6 140.945 709.467C170.851 733.333 214.96 733.333 303.178 733.333H496.82C585.04 733.333 629.15 733.333 659.057 709.467C688.964 685.6 694.79 645.747 706.45 566.037L720.55 469.653C735.417 368.013 742.85 317.19 711.257 284.296C679.66 251.401 623.414 251.401 510.92 251.401ZM486.04 526.473C504.654 514.937 504.654 485.063 486.04 473.527L373.654 403.853C355.564 392.64 333.334 407.237 333.334 430.33V569.67C333.334 592.763 355.564 607.36 373.654 596.147L486.04 526.473Z" fill="#59636E"/>
</svg>
