<svg width="800" height="800" viewBox="0 0 800 800" fill="none" xmlns="http://www.w3.org/2000/svg">
<path d="M375.001 66.6667C329.461 66.711 291.04 67.005 258.334 68.95V208.325H375.001V66.6667Z" fill="#94a3b8"/>
<path d="M208.333 74.0467C167.576 80.522 138.283 92.673 115.482 115.474C92.681 138.275 80.53 167.568 74.0547 208.325H208.333V74.0467Z" fill="#94a3b8"/>
<path fill-rule="evenodd" clip-rule="evenodd" d="M66.666 399.993C66.666 343.31 66.666 296.852 68.9573 258.325H731.043C733.333 296.852 733.333 343.31 733.333 399.993C733.333 456.673 733.333 503.133 731.043 541.66H68.9573C66.666 503.133 66.666 456.673 66.666 399.993ZM413.706 346.81C449.013 370.54 466.666 382.407 466.666 400C466.666 417.593 449.013 429.46 413.706 453.19C377.916 477.243 360.019 489.27 346.676 480.44C333.333 471.61 333.333 447.74 333.333 400C333.333 352.26 333.333 328.391 346.676 319.561C360.019 310.73 377.916 322.757 413.706 346.81Z" fill="#94a3b8"/>
<path d="M725.946 208.325C719.469 167.568 707.319 138.275 684.516 115.474C661.716 92.673 632.423 80.522 591.666 74.0467V208.325H725.946Z" fill="#94a3b8"/>
<path d="M425 66.6667C470.54 66.711 508.96 67.005 541.667 68.95V208.325H425V66.6667Z" fill="#94a3b8"/>
<path d="M725.946 591.66H591.666V725.937C632.423 719.463 661.716 707.31 684.516 684.51C707.319 661.71 719.469 632.417 725.946 591.66Z" fill="#94a3b8"/>
<path d="M541.667 591.66V731.033C508.96 732.98 470.54 733.273 425 733.317V591.66H541.667Z" fill="#94a3b8"/>
<path d="M375.001 733.317V591.66H258.334V731.033C291.04 732.98 329.461 733.273 375.001 733.317Z" fill="#94a3b8"/>
<path d="M208.333 591.66V725.937C167.576 719.463 138.283 707.31 115.482 684.51C92.681 661.71 80.53 632.417 74.0547 591.66H208.333Z" fill="#94a3b8"/>
</svg>
