<svg width="800" height="800" viewBox="0 0 800 800" fill="none" xmlns="http://www.w3.org/2000/svg">
<path d="M500 133.333V166.667C500 229.521 500 260.948 519.527 280.474C539.053 300 570.48 300 633.333 300H683.333M683.333 300L600 233.333M683.333 300L600 366.667" stroke="#59636E" stroke-width="50" stroke-linecap="round" stroke-linejoin="round"/>
<path d="M334.586 177.206L356.22 215.97C375.743 250.953 367.906 296.844 337.156 327.593C337.156 327.593 299.862 364.893 367.483 432.517C435.083 500.117 472.406 462.843 472.406 462.843C503.156 432.093 549.046 424.257 584.03 443.78L622.793 465.413C675.62 494.893 681.856 568.973 635.426 615.407C607.526 643.307 573.346 665.017 535.563 666.447C471.96 668.86 363.943 652.763 255.59 544.41C147.237 436.057 131.14 328.041 133.551 264.436C134.984 226.653 156.693 192.474 184.593 164.574C231.025 118.143 305.105 124.381 334.586 177.206Z" fill="#59636E"/>
</svg>
