<svg width="800" height="800" viewBox="0 0 800 800" fill="none" xmlns="http://www.w3.org/2000/svg">
<path fill-rule="evenodd" clip-rule="evenodd" d="M113.334 113.333C66.667 160.444 66.667 235.778 66.667 386.667V413.333C66.667 564 66.667 639.333 113.334 686.667C160.445 733.333 235.778 733.333 386.667 733.333H413.334C564 733.333 639.334 733.333 686.667 686.667C733.334 639.557 733.334 564.223 733.334 413.333V386.667C733.334 236 733.334 160.667 686.667 113.333C639.557 66.6668 564.224 66.6667 413.334 66.6667H386.667C236 66.6667 160.667 66.6668 113.334 113.333ZM179.111 269.556C182.667 442.89 269.334 546.89 421.334 546.89H430.224V447.777C486 453.333 528.224 494.223 545.11 546.89H624C615.91 516.963 601.564 489.09 581.914 465.11C562.264 441.133 537.754 421.593 510 407.777C534.87 392.633 556.35 372.52 573.097 348.7C589.844 324.88 601.5 297.862 607.334 269.333H535.777C520.224 324.445 474 374.443 430.224 379.11V269.556H358.444V461.557C314 450.443 258 396.667 255.556 269.556H179.111Z" fill="#59636E"/>
</svg>
