<svg width="800" height="800" viewBox="0 0 800 800" fill="none" xmlns="http://www.w3.org/2000/svg">
<path d="M433.333 513.333C433.333 444.193 433.334 409.623 455.3 388.147C477.267 366.667 512.623 366.667 583.333 366.667C654.043 366.667 689.4 366.667 711.367 388.147C733.333 409.623 733.333 444.193 733.333 513.333V586.667C733.333 655.807 733.333 690.377 711.367 711.853C689.4 733.333 654.043 733.333 583.333 733.333C512.623 733.333 477.267 733.333 455.3 711.853C433.334 690.377 433.333 655.807 433.333 586.667V513.333Z" fill="#59636E"/>
<path d="M66.6665 286.667C66.6665 355.807 66.6665 390.377 88.6335 411.853C110.601 433.333 145.956 433.333 216.667 433.333C287.377 433.333 322.732 433.333 344.7 411.853C366.666 390.377 366.667 355.807 366.667 286.667V213.333C366.667 144.194 366.666 109.624 344.7 88.1457C322.732 66.6667 287.377 66.6667 216.667 66.6667C145.956 66.6667 110.601 66.6667 88.6335 88.1457C66.6665 109.624 66.6665 144.194 66.6665 213.333V286.667Z" fill="#59636E"/>
<path d="M433.333 183.333C433.333 147.093 433.333 128.973 439.043 114.68C446.653 95.6223 461.253 80.481 479.633 72.587C493.413 66.6667 510.887 66.6667 545.833 66.6667H620.833C655.78 66.6667 673.253 66.6667 687.033 72.587C705.413 80.481 720.013 95.6223 727.623 114.68C733.333 128.973 733.333 147.093 733.333 183.333C733.333 219.573 733.333 237.693 727.623 251.986C720.013 271.044 705.413 286.186 687.033 294.08C673.253 300 655.78 300 620.833 300H545.833C510.887 300 493.413 300 479.633 294.08C461.253 286.186 446.653 271.044 439.043 251.986C433.333 237.693 433.333 219.573 433.333 183.333Z" fill="#59636E"/>
<path d="M66.6665 616.667C66.6665 652.907 66.6665 671.027 72.3755 685.32C79.9875 704.377 94.5882 719.52 112.965 727.413C126.748 733.333 144.221 733.333 179.166 733.333H254.167C289.112 733.333 306.585 733.333 320.368 727.413C338.746 719.52 353.346 704.377 360.956 685.32C366.667 671.027 366.667 652.907 366.667 616.667C366.667 580.427 366.667 562.307 360.956 548.013C353.346 528.957 338.746 513.813 320.368 505.92C306.585 500 289.112 500 254.167 500H179.166C144.221 500 126.748 500 112.965 505.92C94.5882 513.813 79.9875 528.957 72.3755 548.013C66.6665 562.307 66.6665 580.427 66.6665 616.667Z" fill="#59636E"/>
</svg>
