<svg width="800" height="800" viewBox="0 0 800 800" fill="none" xmlns="http://www.w3.org/2000/svg">
<path fill-rule="evenodd" clip-rule="evenodd" d="M733.334 400C733.334 584.093 584.094 733.333 400 733.333C215.905 733.333 66.667 584.093 66.667 400C66.667 215.905 215.905 66.6667 400 66.6667C584.094 66.6667 733.334 215.905 733.334 400ZM182.019 369.443C194.444 259.996 287.468 175 400.32 175C471.6 175 534.964 208.931 575.07 261.415C583.454 272.386 581.354 288.076 570.384 296.459C559.414 304.842 543.724 302.744 535.34 291.773C504.297 251.148 455.377 225 400.32 225C315.071 225 244.547 287.74 232.444 369.443H244.551C254.666 369.443 263.784 375.54 267.651 384.887C271.519 394.23 269.374 404.987 262.217 412.133L223.275 451.023C213.514 460.77 197.704 460.77 187.943 451.023L149.001 412.133C141.844 404.987 139.699 394.23 143.567 384.887C147.434 375.54 156.552 369.443 166.667 369.443H182.019ZM612.057 348.977C602.297 339.23 586.487 339.23 576.727 348.977L537.784 387.867C530.627 395.013 528.484 405.77 532.35 415.113C536.217 424.46 545.337 430.557 555.45 430.557H567.557C555.454 512.26 484.93 575 399.684 575C344.88 575 296.162 549.097 265.097 508.793C256.668 497.86 240.97 495.827 230.034 504.257C219.099 512.687 217.067 528.383 225.496 539.32C265.629 591.387 328.735 625 399.684 625C512.534 625 605.557 540.003 617.984 430.557H633.334C643.45 430.557 652.567 424.46 656.434 415.113C660.304 405.77 658.157 395.013 651 387.867L612.057 348.977Z" fill="#59636E"/>
</svg>
