<svg width="800" height="800" viewBox="0 0 800 800" fill="none" xmlns="http://www.w3.org/2000/svg">
<path fill-rule="evenodd" clip-rule="evenodd" d="M133.333 708.333H66.6665C52.8595 708.333 41.6665 719.527 41.6665 733.333C41.6665 747.14 52.8595 758.333 66.6665 758.333H733.333C747.14 758.333 758.333 747.14 758.333 733.333C758.333 719.527 747.14 708.333 733.333 708.333H666.666V533.333C666.666 439.99 666.666 393.32 648.5 357.667C632.523 326.308 607.026 300.811 575.666 284.832C540.013 266.667 493.343 266.667 400 266.667C306.658 266.667 259.987 266.667 224.335 284.832C192.975 300.811 167.478 326.308 151.499 357.667C133.333 393.32 133.333 439.99 133.333 533.333V708.333ZM450 583.333C450 601.84 439.946 618 425 626.643V708.333H375V626.643C360.053 618 350 601.84 350 583.333C350 555.72 372.386 533.333 400 533.333C427.613 533.333 450 555.72 450 583.333ZM500 335.497C486.193 335.497 475 346.69 475 360.497C475 374.307 486.193 385.497 500 385.497C528.066 385.497 548.79 406.78 547.853 432.423C547.35 446.22 558.126 457.813 571.923 458.317C585.723 458.82 597.317 448.043 597.82 434.247C599.877 377.89 553.933 335.497 500 335.497Z" fill="#59636E"/>
<path d="M400 41.6666C413.807 41.6666 425 52.8596 425 66.6666V166.667C425 180.474 413.807 191.667 400 191.667C386.193 191.667 375 180.474 375 166.667V66.6666C375 52.8596 386.193 41.6666 400 41.6666Z" fill="#59636E"/>
<path d="M717.677 184.344L667.677 234.344C657.913 244.107 642.087 244.107 632.323 234.344C622.56 224.581 622.56 208.752 632.323 198.989L682.323 148.989C692.087 139.226 707.913 139.226 717.677 148.989C727.44 158.752 727.44 174.581 717.677 184.344Z" fill="#59636E"/>
<path d="M117.678 148.989C107.915 139.226 92.0853 139.226 82.3223 148.989C72.5592 158.752 72.5592 174.581 82.3223 184.344L132.322 234.344C142.085 244.107 157.915 244.107 167.678 234.344C177.441 224.581 177.441 208.752 167.678 198.989L117.678 148.989Z" fill="#59636E"/>
</svg>
