<svg width="800" height="800" viewBox="0 0 800 800" fill="none" xmlns="http://www.w3.org/2000/svg">
<path d="M236.794 128.432C236.794 128.43 236.793 128.426 236.793 128.42C236.791 128.412 236.79 128.398 236.788 128.38C236.78 128.31 236.767 128.174 236.753 127.974C236.725 127.575 236.697 126.927 236.713 126.066C236.746 124.342 236.957 121.779 237.705 118.654C239.189 112.45 242.818 103.879 251.646 95.1389C269.375 77.5874 309.01 58.4999 397.125 58.4999H398.074L398.976 58.2073L398.996 58.2008C490.174 58.3582 530.596 81.2755 548.497 102.471C557.509 113.142 561.131 123.722 562.532 131.556C563.234 135.485 563.378 138.729 563.353 140.944C563.34 142.05 563.285 142.895 563.238 143.435C563.215 143.704 563.193 143.897 563.179 144.008C563.173 144.063 563.168 144.098 563.166 144.111L563.166 144.112C563.165 144.118 563.165 144.119 563.166 144.115L563.1 144.54V145V297.275C563.1 319.406 557.496 335.5 549.415 347.3C541.305 359.143 530.44 367.037 519.371 372.308C508.278 377.589 497.108 380.172 488.655 381.424C484.444 382.048 480.947 382.335 478.526 382.467C477.317 382.533 476.379 382.56 475.758 382.57C475.447 382.575 475.216 382.576 475.071 382.576C474.998 382.576 474.946 382.576 474.917 382.576L474.895 382.576L474.891 382.576H474.889L474.888 382.576L474.848 382.575H474.8H305.75C279.52 382.575 259.624 389.122 244.643 399.286C229.697 409.426 220.027 422.904 213.788 436.187C207.561 449.442 204.694 462.618 203.37 472.422C202.707 477.339 202.426 481.449 202.312 484.353C202.255 485.806 202.239 486.961 202.238 487.767C202.238 488.17 202.241 488.486 202.245 488.709C202.245 488.752 202.246 488.791 202.247 488.826C202.248 488.885 202.249 488.934 202.25 488.974L202.25 488.981V566.925H150.325H150.106L149.912 566.939H149.911L149.904 566.94L149.9 566.94C149.881 566.941 149.838 566.943 149.773 566.946C149.643 566.952 149.423 566.96 149.119 566.964C148.512 566.972 147.571 566.965 146.345 566.897C143.891 566.761 140.308 566.384 135.973 565.403C127.313 563.444 115.673 559.086 103.98 549.443C80.757 530.291 56 489.122 56 400.125C56 311.358 83.9197 272.061 110.15 254.502C123.434 245.609 136.726 241.976 146.709 240.568C151.696 239.865 155.831 239.721 158.683 239.75C160.107 239.764 161.207 239.821 161.928 239.872C162.288 239.897 162.553 239.921 162.716 239.937C162.797 239.945 162.853 239.951 162.883 239.954L162.891 239.955L162.899 239.956L162.904 239.957L162.907 239.957L163.257 240H163.625H399.65H405.65V234V209V203H399.65H236.85V129.25V128.814L236.792 128.421C236.793 128.427 236.794 128.43 236.794 128.432ZM236.794 128.432C236.794 128.432 236.794 128.433 236.794 128.433L236.794 128.433C236.794 128.433 236.794 128.433 236.794 128.432ZM268.25 137.025V137.1L268.252 137.175C268.432 144.363 270.739 151.335 274.882 157.211C279.025 163.087 284.817 167.603 291.527 170.187C298.236 172.771 305.561 173.307 312.575 171.728C319.589 170.148 325.977 166.525 330.932 161.315C335.886 156.105 339.184 149.543 340.409 142.458C341.634 135.373 340.73 128.085 337.813 121.514C334.895 114.943 330.094 109.385 324.017 105.542C317.962 101.713 310.91 99.7591 303.748 99.9251C298.626 99.9387 294.61 101.318 290.689 102.942C286.279 104.769 282.272 107.446 278.897 110.822C275.521 114.197 272.844 118.204 271.017 122.614C269.19 127.025 268.25 131.751 268.25 136.525V137.025Z" fill="#59636E" stroke="#59636E" stroke-width="12"/>
<path d="M402.125 741.75H400.307L400.233 741.799C308.964 741.663 268.512 718.734 250.603 697.529C241.591 686.858 237.969 676.278 236.568 668.444C235.866 664.515 235.722 661.271 235.747 659.056C235.76 657.95 235.815 657.105 235.862 656.565C235.886 656.296 235.907 656.103 235.921 655.992C235.927 655.939 235.932 655.905 235.934 655.89C235.934 655.89 235.934 655.889 235.934 655.889L235.935 655.885L236 655.46V655V501.7C236 479.57 241.608 463.471 249.696 451.663C257.814 439.813 268.689 431.909 279.769 426.629C290.872 421.338 302.052 418.746 310.512 417.487C314.727 416.86 318.227 416.57 320.65 416.436C321.861 416.369 322.8 416.342 323.421 416.331C323.732 416.325 323.963 416.324 324.109 416.324C324.182 416.324 324.233 416.324 324.263 416.324L324.285 416.324L324.289 416.324L324.291 416.324L324.292 416.324L324.33 416.325H324.375H493.5C519.73 416.325 539.626 409.778 554.607 399.614C569.553 389.474 579.223 375.996 585.462 362.713C591.689 349.458 594.557 336.282 595.88 326.478C596.544 321.561 596.824 317.451 596.938 314.547C596.996 313.094 597.011 311.939 597.012 311.133C597.012 310.73 597.009 310.414 597.006 310.191C597.005 310.146 597.004 310.106 597.003 310.069C597.002 310.013 597.001 309.965 597 309.926L597 309.919V233.075H649.675H649.863L650.026 233.065L650.033 233.064L650.038 233.064C650.057 233.063 650.1 233.061 650.165 233.059C650.296 233.055 650.516 233.049 650.82 233.048C651.428 233.046 652.37 233.063 653.597 233.143C656.053 233.302 659.64 233.714 663.979 234.734C672.647 236.77 684.3 241.224 696.006 250.939C719.252 270.231 744 311.42 744 399.875C744 488.098 716.091 527.484 689.827 545.245C676.528 554.238 663.223 557.996 653.234 559.504C648.243 560.257 644.106 560.444 641.253 560.446C639.827 560.447 638.727 560.402 638.006 560.359C637.646 560.338 637.38 560.317 637.217 560.303C637.136 560.296 637.08 560.291 637.05 560.288L637.042 560.287L637.034 560.286L637.029 560.286L637.026 560.285L636.709 560.25H636.375H399.625H393.625V566.25V591.25V597.25H399.625H562.4V670.75V671.185L562.456 671.565C562.456 671.565 562.457 671.569 562.457 671.577C562.457 671.577 562.457 671.577 562.457 671.578C562.458 671.587 562.46 671.6 562.462 671.619C562.47 671.689 562.483 671.827 562.497 672.027C562.525 672.429 562.553 673.08 562.537 673.945C562.504 675.677 562.293 678.251 561.544 681.39C560.059 687.62 556.427 696.223 547.597 704.993C529.868 722.602 490.236 741.75 402.125 741.75ZM495.576 700.073L495.576 700.063C504.881 699.826 513.755 696.027 520.353 689.428C527.17 682.611 531 673.366 531 663.725V662.975V662.9L530.998 662.825C530.818 655.637 528.511 648.665 524.368 642.789C520.225 636.913 514.433 632.397 507.724 629.813C501.014 627.229 493.69 626.693 486.675 628.272C479.661 629.852 473.273 633.475 468.319 638.685C463.364 643.895 460.066 650.457 458.841 657.542C457.616 664.627 458.52 671.915 461.437 678.486C464.355 685.057 469.156 690.615 475.233 694.458C481.309 698.3 488.389 700.254 495.576 700.073Z" fill="#59636E" stroke="#59636E" stroke-width="12"/>
</svg>
