<svg width="800" height="800" viewBox="0 0 800 800" fill="none" xmlns="http://www.w3.org/2000/svg">
<path fill-rule="evenodd" clip-rule="evenodd" d="M115.483 115.482C66.667 164.298 66.667 242.865 66.667 400C66.667 557.133 66.667 635.703 115.483 684.517C164.298 733.333 242.865 733.333 400 733.333C557.134 733.333 635.704 733.333 684.517 684.517C733.334 635.703 733.334 557.133 733.334 400C733.334 242.865 733.334 164.298 684.517 115.482C635.704 66.6667 557.134 66.6667 400 66.6667C242.865 66.6667 164.298 66.6667 115.483 115.482ZM449.604 214.864C462.94 218.437 470.854 232.146 467.28 245.482L381.007 567.457C377.434 580.793 363.724 588.71 350.387 585.137C337.05 581.56 329.137 567.853 332.711 554.517L418.984 232.541C422.557 219.205 436.267 211.29 449.604 214.864ZM498.99 282.322C508.754 272.559 524.58 272.559 534.344 282.322L541.29 289.267C562.467 310.443 580.127 328.103 592.26 344.007C605.07 360.793 614.054 378.53 614.054 400C614.054 421.47 605.07 439.207 592.26 455.993C580.127 471.897 562.467 489.557 541.29 510.733L534.344 517.677C524.58 527.44 508.754 527.44 498.99 517.677C489.227 507.913 489.227 492.087 498.99 482.323L504.707 476.603C527.43 453.88 542.657 438.58 552.51 425.663C561.924 413.327 564.054 406.143 564.054 400C564.054 393.857 561.924 386.673 552.51 374.337C542.657 361.42 527.43 346.12 504.707 323.397L498.99 317.678C489.227 307.915 489.227 292.086 498.99 282.322ZM265.662 282.322C275.425 272.559 291.254 272.559 301.018 282.322C310.781 292.086 310.781 307.915 301.018 317.678L295.298 323.397C272.577 346.12 257.351 361.42 247.496 374.337C238.082 386.673 235.954 393.857 235.954 400C235.954 406.143 238.082 413.327 247.496 425.663C257.351 438.58 272.577 453.88 295.298 476.603L301.018 482.323C310.781 492.087 310.781 507.913 301.018 517.677C291.254 527.44 275.425 527.44 265.662 517.677L258.717 510.733C237.539 489.557 219.88 471.897 207.745 455.993C194.937 439.207 185.954 421.47 185.954 400C185.954 378.53 194.937 360.793 207.745 344.007C219.88 328.103 237.539 310.444 258.717 289.267L265.662 282.322Z" fill="#59636E"/>
</svg>
