<svg width="512" height="512" viewBox="0 0 512 512" fill="none" xmlns="http://www.w3.org/2000/svg">
<g clip-path="url(#clip0_66_2)">
<path d="M344.437 232.667H416.582C404.946 167.333 349.091 116 279.273 116C202.473 116 139.637 179 139.637 256C139.637 331.438 199.952 393.515 274.619 396H473V326H279.273C213 324.511 190.947 251.393 226.202 210.056C261.085 169.444 327.031 182.317 344.619 233.173" fill="#59636E"/>
<path d="M411 326H482C498.569 326 512 339.431 512 356V366C512 382.569 498.569 396 482 396H411V326Z" fill="#59636E"/>
<path d="M-0.000157357 158.5L35.5758 126.33C42.9292 119.681 52.49 115.999 62.404 115.999L116 115.999L116 396L46.5004 396L46.5004 208.999L5.50299e-05 208.999L-0.000157357 158.5Z" fill="#59636E"/>
</g>
<defs>
<clipPath id="clip0_66_2">
<rect width="512" height="512" fill="white"/>
</clipPath>
</defs>
</svg>
