<svg width="800" height="800" viewBox="0 0 800 800" fill="none" xmlns="http://www.w3.org/2000/svg">
<path fill-rule="evenodd" clip-rule="evenodd" d="M115.483 115.482C66.667 164.298 66.667 242.865 66.667 400C66.667 557.133 66.667 635.703 115.483 684.517C164.298 733.333 242.865 733.333 400 733.333C557.134 733.333 635.704 733.333 684.517 684.517C733.334 635.703 733.334 557.133 733.334 400C733.334 242.865 733.334 164.298 684.517 115.482C635.704 66.6666 557.134 66.6666 400 66.6666C242.865 66.6666 164.298 66.6666 115.483 115.482ZM214.129 317.329C222.968 306.722 238.732 305.289 249.339 314.128L258.553 321.807C278.718 338.61 295.885 352.913 307.765 366.07C320.384 380.043 330.232 396.113 330.232 416.667C330.232 437.22 320.384 453.29 307.765 467.263C295.885 480.42 278.718 494.727 258.553 511.527L249.339 519.207C238.732 528.047 222.968 526.613 214.129 516.007C205.29 505.397 206.723 489.633 217.33 480.797L225.143 474.283C247.095 455.99 261.45 443.95 270.656 433.753C279.399 424.073 280.232 419.533 280.232 416.667C280.232 413.8 279.399 409.263 270.656 399.58C261.45 389.383 247.095 377.343 225.143 359.05L217.33 352.54C206.723 343.7 205.29 327.936 214.129 317.329ZM591.667 500C591.667 513.807 580.474 525 566.667 525H400C386.194 525 375 513.807 375 500C375 486.193 386.194 475 400 475H566.667C580.474 475 591.667 486.193 591.667 500Z" fill="#59636E"/>
</svg>
