<svg width="800" height="800" viewBox="0 0 800 800" fill="none" xmlns="http://www.w3.org/2000/svg">
<g clip-path="url(#clip0_183_2)">
<path fill-rule="evenodd" clip-rule="evenodd" d="M399.975 8.33334C179.1 8.33334 0 188.118 0 409.944C0 587.344 114.6 737.864 273.575 790.974C293.575 794.663 300.875 782.264 300.875 771.622C300.875 762.084 300.524 736.835 300.324 703.327C189.049 727.598 165.575 649.49 165.575 649.49C147.4 603.107 121.175 590.758 121.175 590.758C84.8501 565.835 123.925 566.336 123.925 566.336C164.05 569.172 185.175 607.725 185.175 607.725C220.875 669.092 278.8 651.372 301.6 641.082C305.225 615.129 315.575 597.435 327 587.395C238.175 577.255 144.8 542.819 144.8 388.936C144.8 345.088 160.375 309.246 185.975 281.16C181.85 270.995 168.125 230.184 189.875 174.891C189.875 174.891 223.475 164.098 299.875 216.053C331.8 207.143 366 202.701 400.025 202.525C434 202.701 468.225 207.143 500.175 216.053C576.525 164.098 610.05 174.891 610.05 174.891C631.875 230.184 618.15 270.995 614.025 281.16C639.675 309.246 655.15 345.088 655.15 388.936C655.15 543.195 561.625 577.154 472.525 587.093C486.875 599.492 499.675 623.989 499.675 661.462C499.675 715.149 499.175 758.445 499.175 771.622C499.175 782.364 506.375 794.864 526.675 790.923C685.5 737.713 800 587.294 800 409.944C800 188.118 620.9 8.33334 399.975 8.33334Z" fill="#59636E"/>
</g>
<defs>
<clipPath id="clip0_183_2">
<rect width="800" height="800" fill="white"/>
</clipPath>
</defs>
</svg>
